<?xml version="1.0" encoding="utf-8"?>
<!-- Generator: Adobe Illustrator 22.1.0, SVG Export Plug-In . SVG Version: 6.00 Build 0)  -->
<svg version="1.1" id="Layer_1" xmlns="http://www.w3.org/2000/svg" xmlns:xlink="http://www.w3.org/1999/xlink" x="0px" y="0px"
	 viewBox="0 0 640 480" style="enable-background:new 0 0 640 480;" xml:space="preserve">
<style type="text/css">
	.st0{fill:#FFFFFF;}
	.st1{fill:none;stroke:#FFFFFF;stroke-width:25;stroke-linecap:round;stroke-linejoin:round;stroke-miterlimit:10;}
</style>
<path class="st0" d="M583.3,0H56.7C25.4,0,0,25.4,0,56.7v294.7c0,31.3,25.4,56.7,56.7,56.7h223.4l-28.3,33.6H150
	c-10.4,0-18.9,8.5-18.9,18.9s8.5,18.9,18.9,18.9h340c10.4,0,18.9-8.5,18.9-18.9s-8.5-18.9-18.9-18.9H388.3L360,408.1h223.4
	c31.3,0,56.7-25.4,56.7-56.7V56.7C640,25.4,614.6,0,583.3,0z M602.2,351.4c0,10.4-8.5,18.9-18.9,18.9H56.7
	c-10.4,0-18.9-8.5-18.9-18.9V56.7c0-10.4,8.5-18.9,18.9-18.9h526.6c10.4,0,18.9,8.5,18.9,18.9V351.4z"/>
<g>
	<polyline class="st1" points="473.3,76.6 563.3,76.6 563.3,166.6 	"/>
	<line class="st1" x1="559.7" y1="76.6" x2="483.5" y2="156.4"/>
</g>
<g>
	<polyline class="st1" points="547,241.8 547,331.8 457,331.8 	"/>
	<line class="st1" x1="547" y1="331.8" x2="467.2" y2="252"/>
</g>
<g>
	<polyline class="st1" points="76.5,166.6 76.5,76.6 166.5,76.6 	"/>
	<line class="st1" x1="76.5" y1="76.6" x2="156.3" y2="156.4"/>
</g>
<g>
	<polyline class="st1" points="166.5,331.8 76.5,331.8 76.5,241.8 	"/>
	<line class="st1" x1="76.5" y1="331.8" x2="156.3" y2="252"/>
</g>
</svg>
