<?xml version="1.0" encoding="utf-8"?>
<!-- Generator: Adobe Illustrator 22.1.0, SVG Export Plug-In . SVG Version: 6.00 Build 0)  -->
<svg version="1.1" id="Calque_1" xmlns="http://www.w3.org/2000/svg" xmlns:xlink="http://www.w3.org/1999/xlink" x="0px" y="0px"
	 viewBox="0 0 366.5 63.3" style="enable-background:new 0 0 366.5 63.3;" xml:space="preserve">
<style type="text/css">
	.st0{fill:#FFFFFF;}
</style>
<g>
	<g>
		<path class="st0" d="M157.3,51c-0.1-0.1-0.1-0.1-0.1-0.4c0-0.5,0-0.9,0-1c0-0.1,0-0.2,0.1-0.2c0.1,0,0.1,0,0.1,0.1
			c0,0.1,0,0.2,0,0.4c0.1,0.7,0.8,1,1.4,1c0.9,0,1.4-0.7,1.4-1.3c0-0.7-0.3-1-1.1-1.7l-0.4-0.4c-1-0.8-1.2-1.4-1.2-2.1
			c0-1,0.8-1.7,2-1.7c0.4,0,0.7,0,0.9,0.1c0.2,0,0.3,0,0.3,0c0.1,0,0.1,0,0.1,0.1c0,0,0,0.4,0,1c0,0.2,0,0.2-0.1,0.2
			c-0.1,0-0.1,0-0.1-0.1c0-0.1-0.1-0.4-0.1-0.5c-0.1-0.1-0.3-0.5-1.2-0.5c-0.7,0-1.2,0.4-1.2,1.1c0,0.5,0.2,0.9,1.2,1.6l0.3,0.2
			c1.1,0.9,1.4,1.5,1.4,2.3c0,0.4-0.2,1.1-0.8,1.6c-0.4,0.3-0.9,0.4-1.5,0.4C158.1,51.3,157.7,51.2,157.3,51z"/>
		<path class="st0" d="M163.4,50.2c-0.9-0.8-1.2-1.9-1.2-2.8c0-0.6,0.2-1.8,1.1-2.6c0.6-0.6,1.5-1,2.9-1c0.4,0,0.9,0,1.4,0.1
			c0.4,0.1,0.7,0.1,1,0.1c0.1,0,0.1,0,0.1,0.1c0,0.1,0,0.2,0,0.5c0,0.3,0,0.8,0,1s0,0.2-0.1,0.2c-0.1,0-0.1-0.1-0.1-0.2
			c0-0.4-0.2-0.8-0.4-1c-0.3-0.3-1.1-0.5-1.9-0.5c-1.3,0-1.9,0.4-2.2,0.7c-0.7,0.7-0.9,1.5-0.9,2.5c0,1.8,1.4,3.5,3.5,3.5
			c0.7,0,1.3-0.1,1.7-0.5c0.2-0.2,0.3-0.6,0.4-0.8c0-0.1,0-0.1,0.1-0.1c0,0,0.1,0.1,0.1,0.1c0,0.1-0.1,0.9-0.2,1.2
			c-0.1,0.2-0.1,0.2-0.2,0.3c-0.4,0.2-1.1,0.2-1.7,0.2C165.1,51.3,164.2,50.9,163.4,50.2z"/>
		<path class="st0" d="M176.9,48.3c0,0.9,0,1.7,0,2.1c0,0.3,0.1,0.5,0.4,0.5c0.1,0,0.3,0,0.4,0c0.1,0,0.1,0,0.1,0.1
			c0,0,0,0.1-0.2,0.1c-0.5,0-1.1,0-1.2,0c0,0-0.7,0-0.9,0c-0.1,0-0.2,0-0.2-0.1c0,0,0-0.1,0.1-0.1c0.1,0,0.2,0,0.3,0
			c0.2,0,0.2-0.2,0.3-0.5c0-0.4,0-1.2,0-2.1v-1c0,0,0-0.1-0.1-0.1h-4.1c0,0-0.1,0-0.1,0.1v1c0,0.9,0,1.7,0,2.1
			c0,0.3,0.1,0.5,0.4,0.5c0.1,0,0.3,0,0.4,0c0.1,0,0.1,0,0.1,0.1c0,0,0,0.1-0.2,0.1c-0.5,0-1.1,0-1.2,0c0,0-0.7,0-0.9,0
			c-0.1,0-0.2,0-0.2-0.1c0,0,0-0.1,0.1-0.1c0.1,0,0.2,0,0.3,0c0.2,0,0.2-0.2,0.3-0.5c0-0.4,0-1.2,0-2.1v-1.7c0-1.5,0-1.8,0-2.1
			c0-0.3-0.1-0.5-0.4-0.5c-0.1,0-0.2,0-0.3,0c0,0-0.1,0-0.1-0.1c0-0.1,0-0.1,0.2-0.1c0.4,0,1,0,1.1,0c0,0,0.7,0,0.9,0
			c0.1,0,0.2,0,0.2,0.1c0,0,0,0.1-0.1,0.1c-0.1,0-0.1,0-0.2,0c-0.3,0-0.3,0.2-0.4,0.5c0,0.3,0,0.6,0,2.1v0.2c0,0,0,0.1,0.1,0.1h4.1
			c0,0,0.1,0,0.1-0.1v-0.2c0-1.5,0-1.8,0-2.1c0-0.3-0.1-0.5-0.4-0.5c-0.1,0-0.2,0-0.3,0c0,0-0.1,0-0.1-0.1c0-0.1,0-0.1,0.2-0.1
			c0.4,0,1,0,1.1,0c0,0,0.7,0,0.9,0c0.1,0,0.2,0,0.2,0.1c0,0,0,0.1-0.1,0.1c-0.1,0-0.1,0-0.2,0c-0.3,0-0.3,0.2-0.4,0.5
			c0,0.3,0,0.6,0,2.1V48.3z"/>
		<path class="st0" d="M182.7,43.7c2.2,0,3.8,1.4,3.8,3.6c0,2.2-1.5,3.9-3.8,3.9c-2.6,0-3.7-2-3.7-3.8
			C179,45.9,180.1,43.7,182.7,43.7z M182.9,50.9c0.9,0,2.7-0.5,2.7-3.3c0-2.3-1.4-3.5-2.9-3.5c-1.6,0-2.8,1.1-2.8,3.2
			C179.9,49.4,181.2,50.9,182.9,50.9z"/>
		<path class="st0" d="M191.5,43.7c2.2,0,3.8,1.4,3.8,3.6c0,2.2-1.5,3.9-3.8,3.9c-2.6,0-3.7-2-3.7-3.8
			C187.7,45.9,188.9,43.7,191.5,43.7z M191.7,50.9c0.9,0,2.7-0.5,2.7-3.3c0-2.3-1.4-3.5-2.9-3.5c-1.6,0-2.8,1.1-2.8,3.2
			C188.7,49.4,190,50.9,191.7,50.9z"/>
		<path class="st0" d="M198.1,48.3c0,1.4,0,2,0.2,2.2c0.2,0.2,0.4,0.2,1.2,0.2c0.5,0,0.9,0,1.2-0.3c0.1-0.2,0.2-0.4,0.2-0.6
			c0-0.1,0-0.1,0.1-0.1c0,0,0.1,0,0.1,0.1s-0.1,0.7-0.1,1c-0.1,0.2-0.1,0.3-0.6,0.3c-0.7,0-1.2,0-1.6,0c-0.4,0-0.7,0-1,0
			c0,0-0.2,0-0.4,0c-0.2,0-0.4,0-0.5,0c-0.1,0-0.2,0-0.2-0.1c0,0,0-0.1,0.1-0.1c0.1,0,0.2,0,0.3,0c0.2,0,0.2-0.2,0.3-0.5
			c0-0.4,0-1.2,0-2.1v-1.7c0-1.5,0-1.8,0-2.1c0-0.3-0.1-0.5-0.4-0.5c-0.1,0-0.2,0-0.3,0c0,0-0.1,0-0.1-0.1c0-0.1,0-0.1,0.2-0.1
			c0.4,0,1,0,1.1,0c0,0,0.8,0,1,0c0.1,0,0.2,0,0.2,0.1c0,0,0,0.1-0.1,0.1c-0.1,0-0.2,0-0.3,0c-0.3,0-0.4,0.2-0.4,0.5
			c0,0.3,0,0.6,0,2.1V48.3z"/>
		<path class="st0" d="M208.8,43.7c2.2,0,3.8,1.4,3.8,3.6c0,2.2-1.5,3.9-3.8,3.9c-2.6,0-3.7-2-3.7-3.8
			C205,45.9,206.2,43.7,208.8,43.7z M209,50.9c0.9,0,2.7-0.5,2.7-3.3c0-2.3-1.4-3.5-2.9-3.5c-1.6,0-2.8,1.1-2.8,3.2
			C206,49.4,207.3,50.9,209,50.9z"/>
		<path class="st0" d="M214.6,46.6c0-1.5,0-1.8,0-2.1c0-0.3-0.1-0.5-0.4-0.5c-0.1,0-0.2,0-0.3,0c0,0-0.1,0-0.1-0.1
			c0-0.1,0-0.1,0.2-0.1c0.2,0,0.5,0,0.7,0l0.4,0c0.2,0,2.1,0,2.4,0c0.2,0,0.3,0,0.4,0c0.1,0,0.1-0.1,0.1-0.1s0.1,0,0.1,0.1
			c0,0.1,0,0.2-0.1,0.5c0,0.1,0,0.5,0,0.6c0,0,0,0.1-0.1,0.1c0,0-0.1,0-0.1-0.1c0-0.1,0-0.2-0.1-0.4c-0.1-0.1-0.3-0.3-0.7-0.3
			l-1.5,0c-0.1,0-0.1,0-0.1,0.1V47c0,0.1,0,0.1,0.1,0.1l1.2,0c0.2,0,0.3,0,0.4,0c0.2,0,0.4,0,0.4-0.2c0,0,0.1-0.1,0.1-0.1s0,0,0,0.1
			c0,0.1,0,0.2-0.1,0.5c0,0.2,0,0.6,0,0.6c0,0.1,0,0.2-0.1,0.2c0,0-0.1,0-0.1-0.1c0-0.1,0-0.2-0.1-0.3c0-0.1-0.2-0.3-0.5-0.3
			c-0.2,0-1.3,0-1.5,0c0,0-0.1,0-0.1,0.1v0.8c0,0.9,0,1.7,0,2.1c0,0.3,0.1,0.5,0.4,0.5c0.1,0,0.3,0,0.4,0c0.1,0,0.1,0,0.1,0.1
			c0,0,0,0.1-0.2,0.1c-0.5,0-1.1,0-1.2,0c0,0-0.7,0-0.9,0c-0.1,0-0.2,0-0.2-0.1c0,0,0-0.1,0.1-0.1c0.1,0,0.2,0,0.3,0
			c0.2,0,0.2-0.2,0.3-0.5c0-0.4,0-1.2,0-2.1V46.6z"/>
		<path class="st0" d="M224.8,44.1c0.1-0.3,0.2-0.4,0.2-0.4c0.1,0,0.1,0,0.2,0.3c0.1,0.4,1.7,4.3,2.2,5.8c0.3,0.9,0.6,1,0.8,1.1
			c0.1,0,0.3,0.1,0.4,0.1c0.1,0,0.1,0,0.1,0.1c0,0.1-0.1,0.1-0.2,0.1c-0.1,0-0.8,0-1.5,0c-0.2,0-0.3,0-0.3-0.1c0,0,0-0.1,0.1-0.1
			c0.1,0,0.1-0.1,0.1-0.3l-0.9-2.4c0,0,0-0.1-0.1-0.1h-2.1c0,0-0.1,0-0.1,0.1l-0.6,1.7c-0.1,0.2-0.1,0.5-0.1,0.6
			c0,0.2,0.2,0.3,0.4,0.3h0.1c0.1,0,0.1,0,0.1,0.1c0,0.1-0.1,0.1-0.1,0.1c-0.2,0-0.6,0-0.8,0s-0.6,0-1.1,0c-0.1,0-0.2,0-0.2-0.1
			c0,0,0-0.1,0.1-0.1c0.1,0,0.2,0,0.3,0c0.4-0.1,0.6-0.4,0.8-0.9L224.8,44.1z M225.8,47.9C225.9,47.9,225.9,47.9,225.8,47.9
			l-0.9-2.7c0-0.1-0.1-0.1-0.1,0l-0.8,2.6c0,0,0,0.1,0,0.1H225.8z"/>
		<path class="st0" d="M230.2,46.6c0-1.5,0-1.8,0-2.1c0-0.3-0.1-0.5-0.4-0.5c-0.1,0-0.2,0-0.3,0c0,0-0.1,0-0.1-0.1
			c0-0.1,0-0.1,0.2-0.1c0.4,0,1,0,1.1,0c0.1,0,0.8,0,1.1,0c0.6,0,1.2,0.1,1.8,0.4c0.2,0.2,0.7,0.6,0.7,1.3c0,0.7-0.3,1.4-1.2,2.2
			c0.8,1,1.4,1.9,2,2.5c0.5,0.5,0.9,0.7,1.2,0.7c0.2,0,0.3,0,0.4,0c0,0,0.1,0,0.1,0.1c0,0.1-0.1,0.1-0.2,0.1h-0.7
			c-0.5,0-0.8,0-1-0.2c-0.4-0.2-0.8-0.7-1.3-1.4c-0.4-0.5-0.9-1.2-1-1.4c0,0-0.1-0.1-0.1-0.1l-1.2,0c0,0-0.1,0-0.1,0.1v0.2
			c0,0.9,0,1.7,0,2.1c0,0.3,0.1,0.5,0.4,0.5c0.1,0,0.3,0,0.4,0c0.1,0,0.1,0,0.1,0.1c0,0,0,0.1-0.2,0.1c-0.5,0-1.1,0-1.2,0
			c0,0-0.6,0-0.9,0c-0.1,0-0.2,0-0.2-0.1c0,0,0-0.1,0.1-0.1c0.1,0,0.2,0,0.3,0c0.2,0,0.2-0.2,0.3-0.5c0-0.4,0-1.2,0-2.1V46.6z
			 M230.9,47.5c0,0,0,0.1,0.1,0.1c0.1,0.1,0.6,0.2,1,0.2c0.2,0,0.5,0,0.7-0.2c0.3-0.2,0.6-0.7,0.6-1.5c0-1.2-0.6-1.9-1.7-1.9
			c-0.3,0-0.5,0-0.6,0.1c0,0-0.1,0.1-0.1,0.1V47.5z"/>
		<path class="st0" d="M237.6,50.2c-0.9-0.8-1.2-1.9-1.2-2.8c0-0.6,0.2-1.8,1.1-2.6c0.6-0.6,1.5-1,2.9-1c0.4,0,0.9,0,1.4,0.1
			c0.4,0.1,0.7,0.1,1,0.1c0.1,0,0.1,0,0.1,0.1c0,0.1,0,0.2,0,0.5c0,0.3,0,0.8,0,1s0,0.2-0.1,0.2c-0.1,0-0.1-0.1-0.1-0.2
			c0-0.4-0.2-0.8-0.4-1c-0.3-0.3-1.1-0.5-1.9-0.5c-1.3,0-1.9,0.4-2.2,0.7c-0.7,0.7-0.9,1.5-0.9,2.5c0,1.8,1.4,3.5,3.5,3.5
			c0.7,0,1.3-0.1,1.7-0.5c0.2-0.2,0.3-0.6,0.4-0.8c0-0.1,0-0.1,0.1-0.1c0,0,0.1,0.1,0.1,0.1c0,0.1-0.1,0.9-0.2,1.2
			c-0.1,0.2-0.1,0.2-0.2,0.3c-0.4,0.2-1.1,0.2-1.7,0.2C239.3,51.3,238.4,50.9,237.6,50.2z"/>
		<path class="st0" d="M251.1,48.3c0,0.9,0,1.7,0,2.1c0,0.3,0.1,0.5,0.4,0.5c0.1,0,0.3,0,0.4,0c0.1,0,0.1,0,0.1,0.1
			c0,0,0,0.1-0.2,0.1c-0.5,0-1.1,0-1.2,0c0,0-0.7,0-0.9,0c-0.1,0-0.2,0-0.2-0.1c0,0,0-0.1,0.1-0.1c0.1,0,0.2,0,0.3,0
			c0.2,0,0.2-0.2,0.3-0.5c0-0.4,0-1.2,0-2.1v-1c0,0,0-0.1-0.1-0.1h-4.1c0,0-0.1,0-0.1,0.1v1c0,0.9,0,1.7,0,2.1
			c0,0.3,0.1,0.5,0.4,0.5c0.1,0,0.3,0,0.4,0c0.1,0,0.1,0,0.1,0.1c0,0,0,0.1-0.2,0.1c-0.5,0-1.1,0-1.2,0c0,0-0.7,0-0.9,0
			c-0.1,0-0.2,0-0.2-0.1c0,0,0-0.1,0.1-0.1c0.1,0,0.2,0,0.3,0c0.2,0,0.2-0.2,0.3-0.5c0-0.4,0-1.2,0-2.1v-1.7c0-1.5,0-1.8,0-2.1
			c0-0.3-0.1-0.5-0.4-0.5c-0.1,0-0.2,0-0.3,0c0,0-0.1,0-0.1-0.1c0-0.1,0-0.1,0.2-0.1c0.4,0,1,0,1.1,0c0,0,0.7,0,0.9,0
			c0.1,0,0.2,0,0.2,0.1c0,0,0,0.1-0.1,0.1c-0.1,0-0.1,0-0.2,0c-0.3,0-0.3,0.2-0.4,0.5c0,0.3,0,0.6,0,2.1v0.2c0,0,0,0.1,0.1,0.1h4.1
			c0,0,0.1,0,0.1-0.1v-0.2c0-1.5,0-1.8,0-2.1c0-0.3-0.1-0.5-0.4-0.5c-0.1,0-0.2,0-0.3,0c0,0-0.1,0-0.1-0.1c0-0.1,0-0.1,0.2-0.1
			c0.4,0,1,0,1.1,0c0,0,0.7,0,0.9,0c0.1,0,0.2,0,0.2,0.1c0,0,0,0.1-0.1,0.1c-0.1,0-0.1,0-0.2,0c-0.3,0-0.3,0.2-0.4,0.5
			c0,0.3,0,0.6,0,2.1V48.3z"/>
		<path class="st0" d="M255.3,48.3c0,0.9,0,1.7,0,2.1c0,0.3,0.1,0.5,0.4,0.5c0.1,0,0.3,0,0.4,0c0.1,0,0.1,0,0.1,0.1
			c0,0,0,0.1-0.2,0.1c-0.5,0-1.1,0-1.2,0c0,0-0.7,0-0.9,0c-0.1,0-0.2,0-0.2-0.1c0,0,0-0.1,0.1-0.1c0.1,0,0.2,0,0.3,0
			c0.2,0,0.2-0.2,0.3-0.5c0-0.4,0-1.2,0-2.1v-1.7c0-1.5,0-1.8,0-2.1c0-0.3-0.1-0.5-0.3-0.5c-0.1,0-0.2,0-0.3,0c0,0-0.1,0-0.1-0.1
			c0-0.1,0-0.1,0.2-0.1c0.3,0,0.9,0,1,0c0,0,0.7,0,0.9,0c0.1,0,0.2,0,0.2,0.1c0,0,0,0.1-0.1,0.1c-0.1,0-0.1,0-0.2,0
			c-0.3,0-0.3,0.2-0.4,0.5c0,0.3,0,0.6,0,2.1V48.3z"/>
		<path class="st0" d="M260.8,48.3c0,0.9,0,1.7,0,2.1c0,0.3,0.1,0.5,0.4,0.5c0.1,0,0.3,0,0.4,0c0.1,0,0.1,0,0.1,0.1
			c0,0,0,0.1-0.2,0.1c-0.5,0-1.1,0-1.2,0c0,0-0.7,0-0.9,0c-0.1,0-0.2,0-0.2-0.1c0,0,0-0.1,0.1-0.1c0.1,0,0.2,0,0.3,0
			c0.2,0,0.2-0.2,0.3-0.5c0-0.4,0-1.2,0-2.1v-4.1l-1.4,0c-0.6,0-0.8,0.1-1,0.3c-0.1,0.2-0.1,0.2-0.2,0.3c0,0.1-0.1,0.1-0.1,0.1
			c0,0,0,0,0-0.1c0-0.1,0.2-0.9,0.2-1c0-0.1,0.1-0.2,0.1-0.2c0.1,0,0.2,0.1,0.4,0.1c0.3,0,0.6,0,0.8,0h3.6c0.3,0,0.5,0,0.7,0
			c0.1,0,0.2,0,0.3,0c0,0,0,0.1,0,0.1c0,0.3,0,1,0,1.1c0,0.1,0,0.1-0.1,0.1c0,0-0.1,0-0.1-0.2l0-0.1c0-0.3-0.3-0.5-1.2-0.5l-1.2,0
			V48.3z"/>
		<path class="st0" d="M265.3,46.6c0-1.5,0-1.8,0-2.1c0-0.3-0.1-0.5-0.4-0.5c-0.1,0-0.2,0-0.3,0c0,0-0.1,0-0.1-0.1
			c0-0.1,0-0.1,0.2-0.1c0.2,0,0.5,0,0.7,0l0.4,0c0.1,0,2,0,2.2,0c0.2,0,0.3,0,0.4,0c0,0,0.1,0,0.1,0c0,0,0,0,0,0.1
			c0,0.1,0,0.2-0.1,0.5c0,0.1,0,0.5,0,0.6c0,0,0,0.1-0.1,0.1c-0.1,0-0.1,0-0.1-0.1c0-0.1,0-0.2-0.1-0.3c-0.1-0.2-0.2-0.3-0.7-0.3
			c-0.2,0-1.2,0-1.3,0c0,0-0.1,0-0.1,0.1V47c0,0.1,0,0.1,0.1,0.1c0.1,0,1.3,0,1.5,0c0.2,0,0.4,0,0.5-0.1c0.1-0.1,0.1-0.1,0.1-0.1
			c0,0,0,0,0,0.1s0,0.2-0.1,0.5c0,0.2,0,0.5,0,0.6c0,0.1,0,0.2-0.1,0.2c0,0-0.1,0-0.1-0.1c0-0.1,0-0.2,0-0.3c0-0.1-0.1-0.3-0.5-0.3
			c-0.3,0-1.2,0-1.4,0c0,0-0.1,0-0.1,0.1v0.8c0,0.3,0,1.4,0,1.6c0,0.7,0.2,0.8,1.1,0.8c0.2,0,0.7,0,0.9-0.1s0.4-0.3,0.4-0.7
			c0-0.1,0-0.1,0.1-0.1c0.1,0,0.1,0.1,0.1,0.1c0,0.1-0.1,0.7-0.1,0.9c-0.1,0.2-0.1,0.2-0.5,0.2c-0.7,0-1.2,0-1.6,0
			c-0.4,0-0.6,0-0.8,0c0,0-0.2,0-0.4,0c-0.2,0-0.4,0-0.6,0c-0.1,0-0.2,0-0.2-0.1c0,0,0-0.1,0.1-0.1c0.1,0,0.2,0,0.3,0
			c0.2,0,0.2-0.2,0.3-0.5c0-0.4,0-1.2,0-2.1V46.6z"/>
		<path class="st0" d="M271.3,50.2c-0.9-0.8-1.2-1.9-1.2-2.8c0-0.6,0.2-1.8,1.1-2.6c0.6-0.6,1.5-1,2.9-1c0.4,0,0.9,0,1.4,0.1
			c0.4,0.1,0.7,0.1,1,0.1c0.1,0,0.1,0,0.1,0.1c0,0.1,0,0.2,0,0.5c0,0.3,0,0.8,0,1s0,0.2-0.1,0.2c-0.1,0-0.1-0.1-0.1-0.2
			c0-0.4-0.2-0.8-0.4-1c-0.3-0.3-1.1-0.5-1.9-0.5c-1.3,0-1.9,0.4-2.2,0.7c-0.7,0.7-0.9,1.5-0.9,2.5c0,1.8,1.4,3.5,3.5,3.5
			c0.7,0,1.3-0.1,1.7-0.5c0.2-0.2,0.3-0.6,0.4-0.8c0-0.1,0-0.1,0.1-0.1c0,0,0.1,0.1,0.1,0.1c0,0.1-0.1,0.9-0.2,1.2
			c-0.1,0.2-0.1,0.2-0.2,0.3c-0.4,0.2-1.1,0.2-1.7,0.2C273,51.3,272,50.9,271.3,50.2z"/>
		<path class="st0" d="M280.9,48.3c0,0.9,0,1.7,0,2.1c0,0.3,0.1,0.5,0.4,0.5c0.1,0,0.3,0,0.4,0c0.1,0,0.1,0,0.1,0.1
			c0,0,0,0.1-0.2,0.1c-0.5,0-1.1,0-1.2,0c0,0-0.7,0-0.9,0c-0.1,0-0.2,0-0.2-0.1c0,0,0-0.1,0.1-0.1c0.1,0,0.2,0,0.3,0
			c0.2,0,0.2-0.2,0.3-0.5c0-0.4,0-1.2,0-2.1v-4.1l-1.4,0c-0.6,0-0.8,0.1-1,0.3c-0.1,0.2-0.1,0.2-0.2,0.3c0,0.1-0.1,0.1-0.1,0.1
			c0,0,0,0,0-0.1c0-0.1,0.2-0.9,0.2-1c0-0.1,0.1-0.2,0.1-0.2c0.1,0,0.2,0.1,0.4,0.1c0.3,0,0.6,0,0.8,0h3.6c0.3,0,0.5,0,0.7,0
			c0.1,0,0.2,0,0.3,0c0,0,0,0.1,0,0.1c0,0.3,0,1,0,1.1c0,0.1,0,0.1-0.1,0.1c0,0-0.1,0-0.1-0.2l0-0.1c0-0.3-0.3-0.5-1.2-0.5l-1.2,0
			V48.3z"/>
		<path class="st0" d="M285,46.6c0-1.5,0-1.8,0-2.1c0-0.3-0.1-0.5-0.4-0.5c-0.1,0-0.2,0-0.3,0c0,0-0.1,0-0.1-0.1
			c0-0.1,0-0.1,0.2-0.1c0.4,0,1,0,1.1,0s0.7,0,1,0c0.1,0,0.2,0,0.2,0.1c0,0,0,0.1-0.1,0.1c-0.1,0-0.1,0-0.2,0
			c-0.3,0-0.3,0.2-0.4,0.5c0,0.3,0,0.6,0,2.1V48c0,1.4,0.3,2,0.7,2.4c0.5,0.4,0.9,0.5,1.5,0.5c0.6,0,1.2-0.3,1.5-0.7
			c0.4-0.5,0.6-1.4,0.6-2.4v-1.2c0-1.5,0-1.8,0-2.1c0-0.3-0.1-0.5-0.4-0.5c-0.1,0-0.2,0-0.3,0c0,0-0.1,0-0.1-0.1
			c0-0.1,0-0.1,0.2-0.1c0.4,0,1,0,1,0c0.1,0,0.5,0,0.8,0c0.1,0,0.2,0,0.2,0.1c0,0,0,0.1-0.1,0.1c-0.1,0-0.1,0-0.2,0
			c-0.3,0.1-0.3,0.2-0.4,0.5c0,0.3,0,0.6,0,2.1v1c0,1-0.1,2.2-0.9,2.9c-0.7,0.6-1.4,0.7-2,0.7c-0.3,0-1.3,0-2-0.7
			c-0.5-0.5-0.8-1.1-0.8-2.5V46.6z"/>
		<path class="st0" d="M293.5,46.6c0-1.5,0-1.8,0-2.1c0-0.3-0.1-0.5-0.4-0.5c-0.1,0-0.2,0-0.3,0c0,0-0.1,0-0.1-0.1
			c0-0.1,0-0.1,0.2-0.1c0.4,0,1,0,1.1,0c0.1,0,0.8,0,1.1,0c0.6,0,1.2,0.1,1.8,0.4c0.2,0.2,0.7,0.6,0.7,1.3c0,0.7-0.3,1.4-1.2,2.2
			c0.8,1,1.4,1.9,2,2.5c0.5,0.5,0.9,0.7,1.2,0.7c0.2,0,0.3,0,0.4,0c0,0,0.1,0,0.1,0.1c0,0.1-0.1,0.1-0.2,0.1H299c-0.5,0-0.8,0-1-0.2
			c-0.4-0.2-0.8-0.7-1.3-1.4c-0.4-0.5-0.9-1.2-1-1.4c0,0-0.1-0.1-0.1-0.1l-1.2,0c0,0-0.1,0-0.1,0.1v0.2c0,0.9,0,1.7,0,2.1
			c0,0.3,0.1,0.5,0.4,0.5c0.1,0,0.3,0,0.4,0c0.1,0,0.1,0,0.1,0.1c0,0,0,0.1-0.2,0.1c-0.5,0-1.1,0-1.2,0c0,0-0.6,0-0.9,0
			c-0.1,0-0.2,0-0.2-0.1c0,0,0-0.1,0.1-0.1c0.1,0,0.2,0,0.3,0c0.2,0,0.2-0.2,0.3-0.5c0-0.4,0-1.2,0-2.1V46.6z M294.2,47.5
			c0,0,0,0.1,0.1,0.1c0.1,0.1,0.6,0.2,1,0.2c0.2,0,0.5,0,0.7-0.2c0.3-0.2,0.6-0.7,0.6-1.5c0-1.2-0.6-1.9-1.7-1.9
			c-0.3,0-0.5,0-0.6,0.1c0,0-0.1,0.1-0.1,0.1V47.5z"/>
		<path class="st0" d="M300.7,46.6c0-1.5,0-1.8,0-2.1c0-0.3-0.1-0.5-0.4-0.5c-0.1,0-0.2,0-0.3,0c0,0-0.1,0-0.1-0.1
			c0-0.1,0-0.1,0.2-0.1c0.2,0,0.5,0,0.7,0l0.4,0c0.1,0,2,0,2.2,0c0.2,0,0.3,0,0.4,0c0,0,0.1,0,0.1,0c0,0,0,0,0,0.1
			c0,0.1,0,0.2-0.1,0.5c0,0.1,0,0.5,0,0.6c0,0,0,0.1-0.1,0.1c-0.1,0-0.1,0-0.1-0.1c0-0.1,0-0.2-0.1-0.3c-0.1-0.2-0.2-0.3-0.7-0.3
			c-0.2,0-1.2,0-1.3,0c0,0-0.1,0-0.1,0.1V47c0,0.1,0,0.1,0.1,0.1c0.1,0,1.3,0,1.5,0c0.2,0,0.4,0,0.5-0.1c0.1-0.1,0.1-0.1,0.1-0.1
			c0,0,0,0,0,0.1s0,0.2-0.1,0.5c0,0.2,0,0.5,0,0.6c0,0.1,0,0.2-0.1,0.2c0,0-0.1,0-0.1-0.1c0-0.1,0-0.2,0-0.3c0-0.1-0.1-0.3-0.5-0.3
			c-0.3,0-1.2,0-1.4,0c0,0-0.1,0-0.1,0.1v0.8c0,0.3,0,1.4,0,1.6c0,0.7,0.2,0.8,1.1,0.8c0.2,0,0.7,0,0.9-0.1s0.4-0.3,0.4-0.7
			c0-0.1,0-0.1,0.1-0.1c0.1,0,0.1,0.1,0.1,0.1c0,0.1-0.1,0.7-0.1,0.9c-0.1,0.2-0.1,0.2-0.5,0.2c-0.7,0-1.2,0-1.6,0
			c-0.4,0-0.6,0-0.8,0c0,0-0.2,0-0.4,0c-0.2,0-0.4,0-0.6,0c-0.1,0-0.2,0-0.2-0.1c0,0,0-0.1,0.1-0.1c0.1,0,0.2,0,0.3,0
			c0.2,0,0.2-0.2,0.3-0.5c0-0.4,0-1.2,0-2.1V46.6z"/>
		<path class="st0" d="M305.6,50.4c0-0.3,0.3-0.5,0.6-0.5c0,0,0.1,0,0.2,0.2c0.1,0.2,0.2,0.3,0.2,0.4c0,0.1,0,0.2-0.1,0.4
			c-0.1,0.2-0.3,0.7-0.6,1c0,0-0.1,0.1-0.1,0.1c0,0-0.1,0-0.1-0.1c0,0,0-0.1,0.1-0.1c0.2-0.3,0.2-0.5,0.2-0.7
			C305.9,50.7,305.6,50.5,305.6,50.4z"/>
		<path class="st0" d="M312.2,50.2c-0.9-0.8-1.2-1.9-1.2-2.8c0-0.6,0.2-1.8,1.1-2.6c0.6-0.6,1.5-1,2.9-1c0.4,0,0.9,0,1.4,0.1
			c0.4,0.1,0.7,0.1,1,0.1c0.1,0,0.1,0,0.1,0.1c0,0.1,0,0.2,0,0.5c0,0.3,0,0.8,0,1s0,0.2-0.1,0.2c-0.1,0-0.1-0.1-0.1-0.2
			c0-0.4-0.2-0.8-0.4-1c-0.3-0.3-1.1-0.5-1.9-0.5c-1.3,0-1.9,0.4-2.2,0.7c-0.7,0.7-0.9,1.5-0.9,2.5c0,1.8,1.4,3.5,3.5,3.5
			c0.7,0,1.3-0.1,1.7-0.5c0.2-0.2,0.3-0.6,0.4-0.8c0-0.1,0-0.1,0.1-0.1c0,0,0.1,0.1,0.1,0.1c0,0.1-0.1,0.9-0.2,1.2
			c-0.1,0.2-0.1,0.2-0.2,0.3c-0.4,0.2-1.1,0.2-1.7,0.2C313.9,51.3,312.9,50.9,312.2,50.2z"/>
		<path class="st0" d="M320.6,48.3c0,0.9,0,1.7,0,2.1c0,0.3,0.1,0.5,0.4,0.5c0.1,0,0.3,0,0.4,0c0.1,0,0.1,0,0.1,0.1
			c0,0,0,0.1-0.2,0.1c-0.5,0-1.1,0-1.2,0c0,0-0.7,0-0.9,0c-0.1,0-0.2,0-0.2-0.1c0,0,0-0.1,0.1-0.1c0.1,0,0.2,0,0.3,0
			c0.2,0,0.2-0.2,0.3-0.5c0-0.4,0-1.2,0-2.1v-1.7c0-1.5,0-1.8,0-2.1c0-0.3-0.1-0.5-0.3-0.5c-0.1,0-0.2,0-0.3,0c0,0-0.1,0-0.1-0.1
			c0-0.1,0-0.1,0.2-0.1c0.3,0,0.9,0,1,0c0,0,0.7,0,0.9,0c0.1,0,0.2,0,0.2,0.1c0,0,0,0.1-0.1,0.1c-0.1,0-0.1,0-0.2,0
			c-0.3,0-0.3,0.2-0.4,0.5c0,0.3,0,0.6,0,2.1V48.3z"/>
		<path class="st0" d="M326.1,49.9c0.6-1.3,1.8-4.6,2.1-5.3c0-0.1,0.1-0.3,0.1-0.4c0-0.1,0-0.2-0.1-0.2c-0.1,0-0.3,0-0.4,0
			c-0.1,0-0.1,0-0.1-0.1c0-0.1,0.1-0.1,0.2-0.1c0.4,0,0.8,0,0.9,0c0.1,0,0.5,0,0.8,0c0.1,0,0.2,0,0.2,0.1c0,0,0,0.1-0.1,0.1
			c-0.1,0-0.3,0-0.5,0.1c-0.1,0.1-0.3,0.2-0.5,0.9c-0.1,0.3-0.6,1.4-1.1,2.6c-0.6,1.4-1,2.4-1.2,2.9c-0.3,0.6-0.3,0.7-0.4,0.7
			c-0.1,0-0.2-0.1-0.3-0.6l-2.4-5.9c-0.2-0.5-0.4-0.6-0.7-0.7c-0.1,0-0.3,0-0.4,0c-0.1,0-0.1,0-0.1-0.1c0-0.1,0.1-0.1,0.2-0.1
			c0.5,0,1,0,1.1,0c0.1,0,0.5,0,0.9,0c0.2,0,0.3,0,0.3,0.1c0,0,0,0.1-0.1,0.1c-0.1,0-0.3,0-0.4,0c-0.1,0-0.1,0.1-0.1,0.2
			c0,0.1,0.1,0.4,0.3,0.8L326.1,49.9z"/>
		<path class="st0" d="M332,48.3c0,0.9,0,1.7,0,2.1c0,0.3,0.1,0.5,0.4,0.5c0.1,0,0.3,0,0.4,0c0.1,0,0.1,0,0.1,0.1c0,0,0,0.1-0.2,0.1
			c-0.5,0-1.1,0-1.2,0c0,0-0.7,0-0.9,0c-0.1,0-0.2,0-0.2-0.1c0,0,0-0.1,0.1-0.1c0.1,0,0.2,0,0.3,0c0.2,0,0.2-0.2,0.3-0.5
			c0-0.4,0-1.2,0-2.1v-1.7c0-1.5,0-1.8,0-2.1c0-0.3-0.1-0.5-0.3-0.5c-0.1,0-0.2,0-0.3,0c0,0-0.1,0-0.1-0.1c0-0.1,0-0.1,0.2-0.1
			c0.3,0,0.9,0,1,0c0,0,0.7,0,0.9,0c0.1,0,0.2,0,0.2,0.1c0,0,0,0.1-0.1,0.1c-0.1,0-0.1,0-0.2,0c-0.3,0-0.3,0.2-0.4,0.5
			c0,0.3,0,0.6,0,2.1V48.3z"/>
		<path class="st0" d="M336.2,48.3c0,1.4,0,2,0.2,2.2c0.2,0.2,0.4,0.2,1.2,0.2c0.5,0,0.9,0,1.2-0.3c0.1-0.2,0.2-0.4,0.2-0.6
			c0-0.1,0-0.1,0.1-0.1c0,0,0.1,0,0.1,0.1s-0.1,0.7-0.1,1c-0.1,0.2-0.1,0.3-0.6,0.3c-0.7,0-1.2,0-1.6,0c-0.4,0-0.7,0-1,0
			c0,0-0.2,0-0.4,0c-0.2,0-0.4,0-0.5,0c-0.1,0-0.2,0-0.2-0.1c0,0,0-0.1,0.1-0.1c0.1,0,0.2,0,0.3,0c0.2,0,0.2-0.2,0.3-0.5
			c0-0.4,0-1.2,0-2.1v-1.7c0-1.5,0-1.8,0-2.1c0-0.3-0.1-0.5-0.4-0.5c-0.1,0-0.2,0-0.3,0c0,0-0.1,0-0.1-0.1c0-0.1,0-0.1,0.2-0.1
			c0.4,0,1,0,1.1,0c0,0,0.8,0,1,0c0.1,0,0.2,0,0.2,0.1c0,0,0,0.1-0.1,0.1c-0.1,0-0.2,0-0.3,0c-0.3,0-0.4,0.2-0.4,0.5
			c0,0.3,0,0.6,0,2.1V48.3z"/>
		<path class="st0" d="M345.6,44.1c0.1-0.3,0.2-0.4,0.2-0.4c0.1,0,0.1,0,0.2,0.3c0.1,0.4,1.7,4.3,2.2,5.8c0.3,0.9,0.6,1,0.8,1.1
			c0.1,0,0.3,0.1,0.4,0.1c0.1,0,0.1,0,0.1,0.1c0,0.1-0.1,0.1-0.2,0.1c-0.1,0-0.8,0-1.5,0c-0.2,0-0.3,0-0.3-0.1c0,0,0-0.1,0.1-0.1
			c0.1,0,0.1-0.1,0.1-0.3l-0.9-2.4c0,0,0-0.1-0.1-0.1h-2.1c0,0-0.1,0-0.1,0.1l-0.6,1.7c-0.1,0.2-0.1,0.5-0.1,0.6
			c0,0.2,0.2,0.3,0.4,0.3h0.1c0.1,0,0.1,0,0.1,0.1c0,0.1-0.1,0.1-0.1,0.1c-0.2,0-0.6,0-0.8,0s-0.6,0-1.1,0c-0.1,0-0.2,0-0.2-0.1
			c0,0,0-0.1,0.1-0.1c0.1,0,0.2,0,0.3,0c0.4-0.1,0.6-0.4,0.8-0.9L345.6,44.1z M346.6,47.9C346.6,47.9,346.6,47.9,346.6,47.9
			l-0.9-2.7c0-0.1-0.1-0.1-0.1,0l-0.8,2.6c0,0,0,0.1,0,0.1H346.6z"/>
		<path class="st0" d="M351.2,49.8c0,0.8,0.1,1,0.4,1.1c0.2,0,0.4,0.1,0.5,0.1c0,0,0.1,0,0.1,0.1c0,0.1-0.1,0.1-0.2,0.1
			c-0.5,0-0.9,0-1,0s-0.5,0-0.9,0c-0.1,0-0.2,0-0.2-0.1c0,0,0-0.1,0.1-0.1c0.1,0,0.2,0,0.4-0.1c0.2-0.1,0.3-0.3,0.3-1.2l0-5.5
			c0-0.4,0-0.5,0.1-0.5c0.1,0,0.2,0.2,0.3,0.3c0.1,0.2,1.6,1.7,3.1,3.3c1,1,2,2.2,2.3,2.5l-0.1-4.9c0-0.6-0.1-0.8-0.4-0.9
			c-0.2,0-0.4,0-0.5,0c-0.1,0-0.1,0-0.1-0.1c0-0.1,0.1-0.1,0.2-0.1c0.4,0,0.9,0,1,0s0.4,0,0.8,0c0.1,0,0.2,0,0.2,0.1
			c0,0,0,0.1-0.1,0.1c0,0-0.1,0-0.2,0c-0.3,0.1-0.4,0.3-0.4,0.9l0,5.6c0,0.6,0,0.7-0.1,0.7c-0.1,0-0.2-0.1-0.7-0.6
			c-0.1-0.1-1.5-1.5-2.5-2.6c-1.1-1.2-2.2-2.4-2.5-2.8L351.2,49.8z"/>
		<path class="st0" d="M360,46.6c0-1.5,0-1.8,0-2.1c0-0.3-0.1-0.5-0.4-0.5c-0.1,0-0.2,0-0.3,0c0,0-0.1,0-0.1-0.1
			c0-0.1,0-0.1,0.2-0.1c0.4,0,1,0,1.1,0c0.1,0,0.7,0,1.3,0c1,0,2.7-0.1,3.9,1.1c0.5,0.5,0.9,1.3,0.9,2.4c0,1.2-0.5,2.1-1,2.7
			c-0.4,0.4-1.3,1.1-2.9,1.1c-0.4,0-0.9,0-1.3-0.1c-0.4,0-0.8-0.1-0.8-0.1c0,0-0.2,0-0.4,0c-0.2,0-0.4,0-0.6,0c-0.1,0-0.2,0-0.2-0.1
			c0,0,0-0.1,0.1-0.1c0.1,0,0.2,0,0.3,0c0.2,0,0.2-0.2,0.3-0.5c0-0.4,0-1.2,0-2.1V46.6z M360.8,47.7c0,1,0,1.9,0,2.1
			c0,0.2,0,0.6,0.1,0.7c0.1,0.2,0.5,0.4,1.6,0.4c0.9,0,1.7-0.3,2.3-0.9c0.5-0.5,0.8-1.4,0.8-2.3c0-1.2-0.5-2-0.9-2.4
			c-0.9-1-2-1.1-3.1-1.1c-0.2,0-0.5,0-0.6,0.1c-0.1,0-0.1,0.1-0.1,0.2c0,0.3,0,1.3,0,2V47.7z"/>
		<path class="st0" d="M157.9,58.6c0-1.5,0-1.8,0-2.1c0-0.3-0.1-0.5-0.4-0.5c-0.1,0-0.2,0-0.3,0c0,0-0.1,0-0.1-0.1
			c0-0.1,0-0.1,0.2-0.1c0.2,0,0.5,0,0.7,0l0.4,0c0.1,0,2,0,2.2,0c0.2,0,0.3,0,0.4,0c0,0,0.1,0,0.1,0c0,0,0,0,0,0.1
			c0,0.1,0,0.2-0.1,0.5c0,0.1,0,0.5,0,0.6c0,0,0,0.1-0.1,0.1c-0.1,0-0.1,0-0.1-0.1c0-0.1,0-0.2-0.1-0.3c-0.1-0.2-0.2-0.3-0.7-0.3
			c-0.2,0-1.2,0-1.3,0c0,0-0.1,0-0.1,0.1V59c0,0.1,0,0.1,0.1,0.1c0.1,0,1.3,0,1.5,0c0.2,0,0.4,0,0.5-0.1c0.1-0.1,0.1-0.1,0.1-0.1
			c0,0,0,0,0,0.1s0,0.2-0.1,0.5c0,0.2,0,0.5,0,0.6c0,0.1,0,0.2-0.1,0.2c0,0-0.1,0-0.1-0.1c0-0.1,0-0.2,0-0.3c0-0.1-0.1-0.3-0.5-0.3
			c-0.3,0-1.2,0-1.4,0c0,0-0.1,0-0.1,0.1v0.8c0,0.3,0,1.4,0,1.6c0,0.7,0.2,0.8,1.1,0.8c0.2,0,0.7,0,0.9-0.1s0.4-0.3,0.4-0.7
			c0-0.1,0-0.1,0.1-0.1c0.1,0,0.1,0.1,0.1,0.1c0,0.1-0.1,0.7-0.1,0.9c-0.1,0.2-0.1,0.2-0.5,0.2c-0.7,0-1.2,0-1.6,0
			c-0.4,0-0.6,0-0.8,0c0,0-0.2,0-0.4,0c-0.2,0-0.4,0-0.6,0c-0.1,0-0.2,0-0.2-0.1c0,0,0-0.1,0.1-0.1c0.1,0,0.2,0,0.3,0
			c0.2,0,0.2-0.2,0.3-0.5c0-0.4,0-1.2,0-2.1V58.6z"/>
		<path class="st0" d="M164,61.8c0,0.8,0.1,1,0.4,1.1c0.2,0,0.4,0.1,0.5,0.1c0,0,0.1,0,0.1,0.1c0,0.1-0.1,0.1-0.2,0.1
			c-0.5,0-0.9,0-1,0s-0.5,0-0.9,0c-0.1,0-0.2,0-0.2-0.1c0,0,0-0.1,0.1-0.1c0.1,0,0.2,0,0.4-0.1c0.2-0.1,0.3-0.3,0.3-1.2l0-5.5
			c0-0.4,0-0.5,0.1-0.5c0.1,0,0.2,0.2,0.3,0.3c0.1,0.2,1.6,1.7,3.1,3.3c1,1,2,2.2,2.3,2.5l-0.1-4.9c0-0.6-0.1-0.8-0.4-0.9
			c-0.2,0-0.4,0-0.5,0c-0.1,0-0.1,0-0.1-0.1c0-0.1,0.1-0.1,0.2-0.1c0.4,0,0.9,0,1,0s0.4,0,0.8,0c0.1,0,0.2,0,0.2,0.1
			c0,0,0,0.1-0.1,0.1c0,0-0.1,0-0.2,0c-0.3,0.1-0.4,0.3-0.4,0.9l0,5.6c0,0.6,0,0.7-0.1,0.7c-0.1,0-0.2-0.1-0.7-0.6
			c-0.1-0.1-1.5-1.5-2.5-2.6c-1.1-1.2-2.2-2.4-2.5-2.8L164,61.8z"/>
		<path class="st0" d="M174.9,61.9c0.6-1.3,1.8-4.6,2.1-5.3c0-0.1,0.1-0.3,0.1-0.4c0-0.1,0-0.2-0.1-0.2c-0.1,0-0.3,0-0.4,0
			c-0.1,0-0.1,0-0.1-0.1c0-0.1,0.1-0.1,0.2-0.1c0.4,0,0.8,0,0.9,0c0.1,0,0.5,0,0.8,0c0.1,0,0.2,0,0.2,0.1c0,0,0,0.1-0.1,0.1
			c-0.1,0-0.3,0-0.5,0.1c-0.1,0.1-0.3,0.2-0.5,0.9c-0.1,0.3-0.6,1.4-1.1,2.6c-0.6,1.4-1,2.4-1.2,2.9c-0.3,0.6-0.3,0.7-0.4,0.7
			c-0.1,0-0.2-0.1-0.3-0.6l-2.4-5.9c-0.2-0.5-0.4-0.6-0.7-0.7c-0.1,0-0.3,0-0.4,0c-0.1,0-0.1,0-0.1-0.1c0-0.1,0.1-0.1,0.2-0.1
			c0.5,0,1,0,1.1,0c0.1,0,0.5,0,0.9,0c0.2,0,0.3,0,0.3,0.1c0,0,0,0.1-0.1,0.1c-0.1,0-0.3,0-0.4,0c-0.1,0-0.1,0.1-0.1,0.2
			c0,0.1,0.1,0.4,0.3,0.8L174.9,61.9z"/>
		<path class="st0" d="M180.8,60.3c0,0.9,0,1.7,0,2.1c0,0.3,0.1,0.5,0.4,0.5c0.1,0,0.3,0,0.4,0c0.1,0,0.1,0,0.1,0.1
			c0,0,0,0.1-0.2,0.1c-0.5,0-1.1,0-1.2,0c0,0-0.7,0-0.9,0c-0.1,0-0.2,0-0.2-0.1c0,0,0-0.1,0.1-0.1c0.1,0,0.2,0,0.3,0
			c0.2,0,0.2-0.2,0.3-0.5c0-0.4,0-1.2,0-2.1v-1.7c0-1.5,0-1.8,0-2.1c0-0.3-0.1-0.5-0.3-0.5c-0.1,0-0.2,0-0.3,0c0,0-0.1,0-0.1-0.1
			c0-0.1,0-0.1,0.2-0.1c0.3,0,0.9,0,1,0c0,0,0.7,0,0.9,0c0.1,0,0.2,0,0.2,0.1c0,0,0,0.1-0.1,0.1c-0.1,0-0.1,0-0.2,0
			c-0.3,0-0.3,0.2-0.4,0.5c0,0.3,0,0.6,0,2.1V60.3z"/>
		<path class="st0" d="M184.2,58.6c0-1.5,0-1.8,0-2.1c0-0.3-0.1-0.5-0.4-0.5c-0.1,0-0.2,0-0.3,0c0,0-0.1,0-0.1-0.1
			c0-0.1,0-0.1,0.2-0.1c0.4,0,1,0,1.1,0c0.1,0,0.8,0,1.1,0c0.6,0,1.2,0.1,1.8,0.4c0.2,0.2,0.7,0.6,0.7,1.3c0,0.7-0.3,1.4-1.2,2.2
			c0.8,1,1.4,1.9,2,2.5c0.5,0.5,0.9,0.7,1.2,0.7c0.2,0,0.3,0,0.4,0c0,0,0.1,0,0.1,0.1c0,0.1-0.1,0.1-0.2,0.1h-0.7
			c-0.5,0-0.8,0-1-0.2c-0.4-0.2-0.8-0.7-1.3-1.4c-0.4-0.5-0.9-1.2-1-1.4c0,0-0.1-0.1-0.1-0.1l-1.2,0c0,0-0.1,0-0.1,0.1v0.2
			c0,0.9,0,1.7,0,2.1c0,0.3,0.1,0.5,0.4,0.5c0.1,0,0.3,0,0.4,0c0.1,0,0.1,0,0.1,0.1c0,0,0,0.1-0.2,0.1c-0.5,0-1.1,0-1.2,0
			c0,0-0.6,0-0.9,0c-0.1,0-0.2,0-0.2-0.1c0,0,0-0.1,0.1-0.1c0.1,0,0.2,0,0.3,0c0.2,0,0.2-0.2,0.3-0.5c0-0.4,0-1.2,0-2.1V58.6z
			 M184.9,59.5c0,0,0,0.1,0.1,0.1c0.1,0.1,0.6,0.2,1,0.2c0.2,0,0.5,0,0.7-0.2c0.3-0.2,0.6-0.7,0.6-1.5c0-1.2-0.6-1.9-1.7-1.9
			c-0.3,0-0.5,0-0.6,0.1c0,0-0.1,0.1-0.1,0.1V59.5z"/>
		<path class="st0" d="M194.2,55.7c2.2,0,3.8,1.4,3.8,3.6c0,2.2-1.5,3.9-3.8,3.9c-2.6,0-3.7-2-3.7-3.8
			C190.5,57.9,191.6,55.7,194.2,55.7z M194.4,62.9c0.9,0,2.7-0.5,2.7-3.3c0-2.3-1.4-3.5-2.9-3.5c-1.6,0-2.8,1.1-2.8,3.2
			C191.4,61.4,192.7,62.9,194.4,62.9z"/>
		<path class="st0" d="M200.3,61.8c0,0.8,0.1,1,0.4,1.1c0.2,0,0.4,0.1,0.5,0.1c0,0,0.1,0,0.1,0.1c0,0.1-0.1,0.1-0.2,0.1
			c-0.5,0-0.9,0-1,0s-0.5,0-0.9,0c-0.1,0-0.2,0-0.2-0.1c0,0,0-0.1,0.1-0.1c0.1,0,0.2,0,0.4-0.1c0.2-0.1,0.3-0.3,0.3-1.2l0-5.5
			c0-0.4,0-0.5,0.1-0.5c0.1,0,0.2,0.2,0.3,0.3c0.1,0.2,1.6,1.7,3.1,3.3c1,1,2,2.2,2.3,2.5l-0.1-4.9c0-0.6-0.1-0.8-0.4-0.9
			c-0.2,0-0.4,0-0.5,0c-0.1,0-0.1,0-0.1-0.1c0-0.1,0.1-0.1,0.2-0.1c0.4,0,0.9,0,1,0s0.4,0,0.8,0c0.1,0,0.2,0,0.2,0.1
			c0,0,0,0.1-0.1,0.1c0,0-0.1,0-0.2,0c-0.3,0.1-0.4,0.3-0.4,0.9l0,5.6c0,0.6,0,0.7-0.1,0.7c-0.1,0-0.2-0.1-0.7-0.6
			c-0.1-0.1-1.5-1.5-2.5-2.6c-1.1-1.2-2.2-2.4-2.5-2.8L200.3,61.8z"/>
		<path class="st0" d="M216.3,61.9c0,0.3,0.1,0.9,0.5,1c0.3,0.1,0.5,0.1,0.6,0.1c0,0,0.1,0,0.1,0c0,0.1-0.1,0.1-0.2,0.1
			c-0.2,0-1.2,0-1.6,0c-0.2,0-0.3,0-0.3-0.1c0,0,0-0.1,0.1-0.1c0,0,0.1-0.2,0-0.3l-0.5-5h0l-2.4,5c-0.2,0.4-0.2,0.5-0.3,0.5
			c-0.1,0-0.1-0.1-0.3-0.4c-0.2-0.5-1.1-2.1-1.1-2.2c-0.1-0.2-1.2-2.5-1.3-2.7h0l-0.4,4.5c0,0.2,0,0.3,0,0.5c0,0.1,0.1,0.3,0.2,0.3
			c0.2,0,0.3,0,0.4,0c0,0,0.1,0,0.1,0c0,0.1-0.1,0.1-0.2,0.1c-0.4,0-0.8,0-0.9,0c-0.1,0-0.5,0-0.8,0c-0.1,0-0.2,0-0.2-0.1
			c0,0,0,0,0.1,0c0.1,0,0.1,0,0.3,0c0.3-0.1,0.3-0.4,0.4-0.8l0.7-6.3c0-0.1,0-0.2,0.1-0.2c0.1,0,0.1,0,0.1,0.1l2.9,6l2.8-6
			c0-0.1,0.1-0.2,0.1-0.2c0.1,0,0.1,0.1,0.1,0.3L216.3,61.9z"/>
		<path class="st0" d="M219.2,58.6c0-1.5,0-1.8,0-2.1c0-0.3-0.1-0.5-0.4-0.5c-0.1,0-0.2,0-0.3,0c0,0-0.1,0-0.1-0.1
			c0-0.1,0-0.1,0.2-0.1c0.2,0,0.5,0,0.7,0l0.4,0c0.1,0,2,0,2.2,0c0.2,0,0.3,0,0.4,0c0,0,0.1,0,0.1,0c0,0,0,0,0,0.1
			c0,0.1,0,0.2-0.1,0.5c0,0.1,0,0.5,0,0.6c0,0,0,0.1-0.1,0.1c-0.1,0-0.1,0-0.1-0.1c0-0.1,0-0.2-0.1-0.3c-0.1-0.2-0.2-0.3-0.7-0.3
			c-0.2,0-1.2,0-1.3,0c0,0-0.1,0-0.1,0.1V59c0,0.1,0,0.1,0.1,0.1c0.1,0,1.3,0,1.5,0c0.2,0,0.4,0,0.5-0.1c0.1-0.1,0.1-0.1,0.1-0.1
			c0,0,0,0,0,0.1s0,0.2-0.1,0.5c0,0.2,0,0.5,0,0.6c0,0.1,0,0.2-0.1,0.2c0,0-0.1,0-0.1-0.1c0-0.1,0-0.2,0-0.3c0-0.1-0.1-0.3-0.5-0.3
			c-0.3,0-1.2,0-1.4,0c0,0-0.1,0-0.1,0.1v0.8c0,0.3,0,1.4,0,1.6c0,0.7,0.2,0.8,1.1,0.8c0.2,0,0.7,0,0.9-0.1s0.4-0.3,0.4-0.7
			c0-0.1,0-0.1,0.1-0.1c0.1,0,0.1,0.1,0.1,0.1c0,0.1-0.1,0.7-0.1,0.9c-0.1,0.2-0.1,0.2-0.5,0.2c-0.7,0-1.2,0-1.6,0
			c-0.4,0-0.6,0-0.8,0c0,0-0.2,0-0.4,0c-0.2,0-0.4,0-0.6,0c-0.1,0-0.2,0-0.2-0.1c0,0,0-0.1,0.1-0.1c0.1,0,0.2,0,0.3,0
			c0.2,0,0.2-0.2,0.3-0.5c0-0.4,0-1.2,0-2.1V58.6z"/>
		<path class="st0" d="M225.3,61.8c0,0.8,0.1,1,0.4,1.1c0.2,0,0.4,0.1,0.5,0.1c0,0,0.1,0,0.1,0.1c0,0.1-0.1,0.1-0.2,0.1
			c-0.5,0-0.9,0-1,0s-0.5,0-0.9,0c-0.1,0-0.2,0-0.2-0.1c0,0,0-0.1,0.1-0.1c0.1,0,0.2,0,0.4-0.1c0.2-0.1,0.3-0.3,0.3-1.2l0-5.5
			c0-0.4,0-0.5,0.1-0.5c0.1,0,0.2,0.2,0.3,0.3c0.1,0.2,1.6,1.7,3.1,3.3c1,1,2,2.2,2.3,2.5l-0.1-4.9c0-0.6-0.1-0.8-0.4-0.9
			c-0.2,0-0.4,0-0.5,0c-0.1,0-0.1,0-0.1-0.1c0-0.1,0.1-0.1,0.2-0.1c0.4,0,0.9,0,1,0s0.4,0,0.8,0c0.1,0,0.2,0,0.2,0.1
			c0,0,0,0.1-0.1,0.1c0,0-0.1,0-0.2,0c-0.3,0.1-0.4,0.3-0.4,0.9l0,5.6c0,0.6,0,0.7-0.1,0.7c-0.1,0-0.2-0.1-0.7-0.6
			c-0.1-0.1-1.5-1.5-2.5-2.6c-1.1-1.2-2.2-2.4-2.5-2.8L225.3,61.8z"/>
		<path class="st0" d="M236.2,60.3c0,0.9,0,1.7,0,2.1c0,0.3,0.1,0.5,0.4,0.5c0.1,0,0.3,0,0.4,0c0.1,0,0.1,0,0.1,0.1
			c0,0,0,0.1-0.2,0.1c-0.5,0-1.1,0-1.2,0c0,0-0.7,0-0.9,0c-0.1,0-0.2,0-0.2-0.1c0,0,0-0.1,0.1-0.1c0.1,0,0.2,0,0.3,0
			c0.2,0,0.2-0.2,0.3-0.5c0-0.4,0-1.2,0-2.1v-4.1l-1.4,0c-0.6,0-0.8,0.1-1,0.3c-0.1,0.2-0.1,0.2-0.2,0.3c0,0.1-0.1,0.1-0.1,0.1
			c0,0,0,0,0-0.1c0-0.1,0.2-0.9,0.2-1c0-0.1,0.1-0.2,0.1-0.2c0.1,0,0.2,0.1,0.4,0.1c0.3,0,0.6,0,0.8,0h3.6c0.3,0,0.5,0,0.7,0
			c0.1,0,0.2,0,0.3,0c0,0,0,0.1,0,0.1c0,0.3,0,1,0,1.1c0,0.1,0,0.1-0.1,0.1c0,0-0.1,0-0.1-0.2l0-0.1c0-0.3-0.3-0.5-1.2-0.5l-1.2,0
			V60.3z"/>
		<path class="st0" d="M241.8,56.1c0.1-0.3,0.2-0.4,0.2-0.4c0.1,0,0.1,0,0.2,0.3c0.1,0.4,1.7,4.3,2.2,5.8c0.3,0.9,0.6,1,0.8,1.1
			c0.1,0,0.3,0.1,0.4,0.1c0.1,0,0.1,0,0.1,0.1c0,0.1-0.1,0.1-0.2,0.1c-0.1,0-0.8,0-1.5,0c-0.2,0-0.3,0-0.3-0.1c0,0,0-0.1,0.1-0.1
			c0.1,0,0.1-0.1,0.1-0.3l-0.9-2.4c0,0,0-0.1-0.1-0.1h-2.1c0,0-0.1,0-0.1,0.1l-0.6,1.7c-0.1,0.2-0.1,0.5-0.1,0.6
			c0,0.2,0.2,0.3,0.4,0.3h0.1c0.1,0,0.1,0,0.1,0.1c0,0.1-0.1,0.1-0.1,0.1c-0.2,0-0.6,0-0.8,0s-0.6,0-1.1,0c-0.1,0-0.2,0-0.2-0.1
			c0,0,0-0.1,0.1-0.1c0.1,0,0.2,0,0.3,0c0.4-0.1,0.6-0.4,0.8-0.9L241.8,56.1z M242.8,59.9C242.8,59.9,242.8,59.9,242.8,59.9
			l-0.9-2.7c0-0.1-0.1-0.1-0.1,0l-0.8,2.6c0,0,0,0.1,0,0.1H242.8z"/>
		<path class="st0" d="M247.9,60.3c0,1.4,0,2,0.2,2.2c0.2,0.2,0.4,0.2,1.2,0.2c0.5,0,0.9,0,1.2-0.3c0.1-0.2,0.2-0.4,0.2-0.6
			c0-0.1,0-0.1,0.1-0.1c0,0,0.1,0,0.1,0.1s-0.1,0.7-0.1,1c-0.1,0.2-0.1,0.3-0.6,0.3c-0.7,0-1.2,0-1.6,0c-0.4,0-0.7,0-1,0
			c0,0-0.2,0-0.4,0c-0.2,0-0.4,0-0.5,0c-0.1,0-0.2,0-0.2-0.1c0,0,0-0.1,0.1-0.1c0.1,0,0.2,0,0.3,0c0.2,0,0.2-0.2,0.3-0.5
			c0-0.4,0-1.2,0-2.1v-1.7c0-1.5,0-1.8,0-2.1c0-0.3-0.1-0.5-0.4-0.5c-0.1,0-0.2,0-0.3,0c0,0-0.1,0-0.1-0.1c0-0.1,0-0.1,0.2-0.1
			c0.4,0,1,0,1.1,0c0,0,0.8,0,1,0c0.1,0,0.2,0,0.2,0.1c0,0,0,0.1-0.1,0.1c-0.1,0-0.2,0-0.3,0c-0.3,0-0.4,0.2-0.4,0.5
			c0,0.3,0,0.6,0,2.1V60.3z"/>
		<path class="st0" d="M255.9,58.6c0-1.5,0-1.8,0-2.1c0-0.3-0.1-0.5-0.4-0.5c-0.1,0-0.2,0-0.3,0c0,0-0.1,0-0.1-0.1
			c0-0.1,0-0.1,0.2-0.1c0.2,0,0.5,0,0.7,0l0.4,0c0.1,0,2,0,2.2,0c0.2,0,0.3,0,0.4,0c0,0,0.1,0,0.1,0c0,0,0,0,0,0.1
			c0,0.1,0,0.2-0.1,0.5c0,0.1,0,0.5,0,0.6c0,0,0,0.1-0.1,0.1c-0.1,0-0.1,0-0.1-0.1c0-0.1,0-0.2-0.1-0.3c-0.1-0.2-0.2-0.3-0.7-0.3
			c-0.2,0-1.2,0-1.3,0c0,0-0.1,0-0.1,0.1V59c0,0.1,0,0.1,0.1,0.1c0.1,0,1.3,0,1.5,0c0.2,0,0.4,0,0.5-0.1c0.1-0.1,0.1-0.1,0.1-0.1
			c0,0,0,0,0,0.1s0,0.2-0.1,0.5c0,0.2,0,0.5,0,0.6c0,0.1,0,0.2-0.1,0.2c0,0-0.1,0-0.1-0.1c0-0.1,0-0.2,0-0.3c0-0.1-0.1-0.3-0.5-0.3
			c-0.3,0-1.2,0-1.4,0c0,0-0.1,0-0.1,0.1v0.8c0,0.3,0,1.4,0,1.6c0,0.7,0.2,0.8,1.1,0.8c0.2,0,0.7,0,0.9-0.1s0.4-0.3,0.4-0.7
			c0-0.1,0-0.1,0.1-0.1c0.1,0,0.1,0.1,0.1,0.1c0,0.1-0.1,0.7-0.1,0.9c-0.1,0.2-0.1,0.2-0.5,0.2c-0.7,0-1.2,0-1.6,0
			c-0.4,0-0.6,0-0.8,0c0,0-0.2,0-0.4,0c-0.2,0-0.4,0-0.6,0c-0.1,0-0.2,0-0.2-0.1c0,0,0-0.1,0.1-0.1c0.1,0,0.2,0,0.3,0
			c0.2,0,0.2-0.2,0.3-0.5c0-0.4,0-1.2,0-2.1V58.6z"/>
		<path class="st0" d="M262,61.8c0,0.8,0.1,1,0.4,1.1c0.2,0,0.4,0.1,0.5,0.1c0,0,0.1,0,0.1,0.1c0,0.1-0.1,0.1-0.2,0.1
			c-0.5,0-0.9,0-1,0s-0.5,0-0.9,0c-0.1,0-0.2,0-0.2-0.1c0,0,0-0.1,0.1-0.1c0.1,0,0.2,0,0.4-0.1c0.2-0.1,0.3-0.3,0.3-1.2l0-5.5
			c0-0.4,0-0.5,0.1-0.5c0.1,0,0.2,0.2,0.3,0.3c0.1,0.2,1.6,1.7,3.1,3.3c1,1,2,2.2,2.3,2.5l-0.1-4.9c0-0.6-0.1-0.8-0.4-0.9
			c-0.2,0-0.4,0-0.5,0c-0.1,0-0.1,0-0.1-0.1c0-0.1,0.1-0.1,0.2-0.1c0.4,0,0.9,0,1,0s0.4,0,0.8,0c0.1,0,0.2,0,0.2,0.1
			c0,0,0,0.1-0.1,0.1c0,0-0.1,0-0.2,0c-0.3,0.1-0.4,0.3-0.4,0.9l0,5.6c0,0.6,0,0.7-0.1,0.7c-0.1,0-0.2-0.1-0.7-0.6
			c-0.1-0.1-1.5-1.5-2.5-2.6c-1.1-1.2-2.2-2.4-2.5-2.8L262,61.8z"/>
		<path class="st0" d="M275.3,60.7c0-0.8,0-0.9-0.4-1c-0.1,0-0.2,0-0.3,0c0,0-0.1,0-0.1-0.1c0-0.1,0-0.1,0.2-0.1c0.4,0,1,0,1.1,0
			c0,0,0.7,0,0.9,0c0.1,0,0.2,0,0.2,0.1c0,0,0,0.1-0.1,0.1c-0.1,0-0.1,0-0.2,0c-0.3,0-0.3,0.2-0.4,0.5c0,0.3,0,0.6,0,1v1.1
			c0,0.4,0,0.5-0.1,0.5c-0.6,0.3-1.5,0.4-2,0.4c-0.7,0-2.1-0.1-3.2-1c-0.6-0.5-1.1-1.5-1.1-2.7c0-1.5,0.8-2.6,1.6-3.2
			c0.9-0.5,1.8-0.6,2.6-0.6c0.6,0,1.3,0.1,1.5,0.2c0.2,0,0.5,0.1,0.8,0.1c0.1,0,0.1,0,0.1,0.1c0,0.1-0.1,0.4-0.1,1.4
			c0,0.2,0,0.2-0.1,0.2c0,0-0.1-0.1-0.1-0.1c0-0.1-0.1-0.4-0.2-0.6c-0.2-0.4-1-0.8-2.3-0.8c-0.6,0-1.3,0.1-2.1,0.6
			c-0.6,0.4-1,1.3-1,2.4c0,1.4,0.7,2.3,1,2.7c0.8,0.7,1.6,1,2.5,1c0.3,0,0.8-0.1,1.1-0.2c0.1-0.1,0.2-0.2,0.2-0.3V60.7z"/>
		<path class="st0" d="M279.8,60.3c0,0.9,0,1.7,0,2.1c0,0.3,0.1,0.5,0.4,0.5c0.1,0,0.3,0,0.4,0c0.1,0,0.1,0,0.1,0.1
			c0,0,0,0.1-0.2,0.1c-0.5,0-1.1,0-1.2,0c0,0-0.7,0-0.9,0c-0.1,0-0.2,0-0.2-0.1c0,0,0-0.1,0.1-0.1c0.1,0,0.2,0,0.3,0
			c0.2,0,0.2-0.2,0.3-0.5c0-0.4,0-1.2,0-2.1v-1.7c0-1.5,0-1.8,0-2.1c0-0.3-0.1-0.5-0.3-0.5c-0.1,0-0.2,0-0.3,0c0,0-0.1,0-0.1-0.1
			c0-0.1,0-0.1,0.2-0.1c0.3,0,0.9,0,1,0c0,0,0.7,0,0.9,0c0.1,0,0.2,0,0.2,0.1c0,0,0,0.1-0.1,0.1c-0.1,0-0.1,0-0.2,0
			c-0.3,0-0.3,0.2-0.4,0.5c0,0.3,0,0.6,0,2.1V60.3z"/>
		<path class="st0" d="M283.5,61.8c0,0.8,0.1,1,0.4,1.1c0.2,0,0.4,0.1,0.5,0.1c0,0,0.1,0,0.1,0.1c0,0.1-0.1,0.1-0.2,0.1
			c-0.5,0-0.9,0-1,0s-0.5,0-0.9,0c-0.1,0-0.2,0-0.2-0.1c0,0,0-0.1,0.1-0.1c0.1,0,0.2,0,0.4-0.1c0.2-0.1,0.3-0.3,0.3-1.2l0-5.5
			c0-0.4,0-0.5,0.1-0.5c0.1,0,0.2,0.2,0.3,0.3c0.1,0.2,1.6,1.7,3.1,3.3c1,1,2,2.2,2.3,2.5l-0.1-4.9c0-0.6-0.1-0.8-0.4-0.9
			c-0.2,0-0.4,0-0.5,0c-0.1,0-0.1,0-0.1-0.1c0-0.1,0.1-0.1,0.2-0.1c0.4,0,0.9,0,1,0s0.4,0,0.8,0c0.1,0,0.2,0,0.2,0.1
			c0,0,0,0.1-0.1,0.1c0,0-0.1,0-0.2,0c-0.3,0.1-0.4,0.3-0.4,0.9l0,5.6c0,0.6,0,0.7-0.1,0.7c-0.1,0-0.2-0.1-0.7-0.6
			c-0.1-0.1-1.5-1.5-2.5-2.6c-1.1-1.2-2.2-2.4-2.5-2.8L283.5,61.8z"/>
		<path class="st0" d="M292.3,58.6c0-1.5,0-1.8,0-2.1c0-0.3-0.1-0.5-0.4-0.5c-0.1,0-0.2,0-0.3,0c0,0-0.1,0-0.1-0.1
			c0-0.1,0-0.1,0.2-0.1c0.2,0,0.5,0,0.7,0l0.4,0c0.1,0,2,0,2.2,0c0.2,0,0.3,0,0.4,0c0,0,0.1,0,0.1,0c0,0,0,0,0,0.1
			c0,0.1,0,0.2-0.1,0.5c0,0.1,0,0.5,0,0.6c0,0,0,0.1-0.1,0.1c-0.1,0-0.1,0-0.1-0.1c0-0.1,0-0.2-0.1-0.3c-0.1-0.2-0.2-0.3-0.7-0.3
			c-0.2,0-1.2,0-1.3,0c0,0-0.1,0-0.1,0.1V59c0,0.1,0,0.1,0.1,0.1c0.1,0,1.3,0,1.5,0c0.2,0,0.4,0,0.5-0.1c0.1-0.1,0.1-0.1,0.1-0.1
			c0,0,0,0,0,0.1s0,0.2-0.1,0.5c0,0.2,0,0.5,0,0.6c0,0.1,0,0.2-0.1,0.2c0,0-0.1,0-0.1-0.1c0-0.1,0-0.2,0-0.3c0-0.1-0.1-0.3-0.5-0.3
			c-0.3,0-1.2,0-1.4,0c0,0-0.1,0-0.1,0.1v0.8c0,0.3,0,1.4,0,1.6c0,0.7,0.2,0.8,1.1,0.8c0.2,0,0.7,0,0.9-0.1s0.4-0.3,0.4-0.7
			c0-0.1,0-0.1,0.1-0.1c0.1,0,0.1,0.1,0.1,0.1c0,0.1-0.1,0.7-0.1,0.9c-0.1,0.2-0.1,0.2-0.5,0.2c-0.7,0-1.2,0-1.6,0
			c-0.4,0-0.6,0-0.8,0c0,0-0.2,0-0.4,0c-0.2,0-0.4,0-0.6,0c-0.1,0-0.2,0-0.2-0.1c0,0,0-0.1,0.1-0.1c0.1,0,0.2,0,0.3,0
			c0.2,0,0.2-0.2,0.3-0.5c0-0.4,0-1.2,0-2.1V58.6z"/>
		<path class="st0" d="M298.1,58.6c0-1.5,0-1.8,0-2.1c0-0.3-0.1-0.5-0.4-0.5c-0.1,0-0.2,0-0.3,0c0,0-0.1,0-0.1-0.1
			c0-0.1,0-0.1,0.2-0.1c0.2,0,0.5,0,0.7,0l0.4,0c0.1,0,2,0,2.2,0c0.2,0,0.3,0,0.4,0c0,0,0.1,0,0.1,0c0,0,0,0,0,0.1
			c0,0.1,0,0.2-0.1,0.5c0,0.1,0,0.5,0,0.6c0,0,0,0.1-0.1,0.1c-0.1,0-0.1,0-0.1-0.1c0-0.1,0-0.2-0.1-0.3c-0.1-0.2-0.2-0.3-0.7-0.3
			c-0.2,0-1.2,0-1.3,0c0,0-0.1,0-0.1,0.1V59c0,0.1,0,0.1,0.1,0.1c0.1,0,1.3,0,1.5,0c0.2,0,0.4,0,0.5-0.1c0.1-0.1,0.1-0.1,0.1-0.1
			c0,0,0,0,0,0.1s0,0.2-0.1,0.5c0,0.2,0,0.5,0,0.6c0,0.1,0,0.2-0.1,0.2c0,0-0.1,0-0.1-0.1c0-0.1,0-0.2,0-0.3c0-0.1-0.1-0.3-0.5-0.3
			c-0.3,0-1.2,0-1.4,0c0,0-0.1,0-0.1,0.1v0.8c0,0.3,0,1.4,0,1.6c0,0.7,0.2,0.8,1.1,0.8c0.2,0,0.7,0,0.9-0.1s0.4-0.3,0.4-0.7
			c0-0.1,0-0.1,0.1-0.1c0.1,0,0.1,0.1,0.1,0.1c0,0.1-0.1,0.7-0.1,0.9c-0.1,0.2-0.1,0.2-0.5,0.2c-0.7,0-1.2,0-1.6,0
			c-0.4,0-0.6,0-0.8,0c0,0-0.2,0-0.4,0c-0.2,0-0.4,0-0.6,0c-0.1,0-0.2,0-0.2-0.1c0,0,0-0.1,0.1-0.1c0.1,0,0.2,0,0.3,0
			c0.2,0,0.2-0.2,0.3-0.5c0-0.4,0-1.2,0-2.1V58.6z"/>
		<path class="st0" d="M304,58.6c0-1.5,0-1.8,0-2.1c0-0.3-0.1-0.5-0.4-0.5c-0.1,0-0.2,0-0.3,0c0,0-0.1,0-0.1-0.1
			c0-0.1,0-0.1,0.2-0.1c0.4,0,1,0,1.1,0c0.1,0,0.8,0,1.1,0c0.6,0,1.2,0.1,1.8,0.4c0.2,0.2,0.7,0.6,0.7,1.3c0,0.7-0.3,1.4-1.2,2.2
			c0.8,1,1.4,1.9,2,2.5c0.5,0.5,0.9,0.7,1.2,0.7c0.2,0,0.3,0,0.4,0c0,0,0.1,0,0.1,0.1c0,0.1-0.1,0.1-0.2,0.1h-0.7
			c-0.5,0-0.8,0-1-0.2c-0.4-0.2-0.8-0.7-1.3-1.4c-0.4-0.5-0.9-1.2-1-1.4c0,0-0.1-0.1-0.1-0.1l-1.2,0c0,0-0.1,0-0.1,0.1v0.2
			c0,0.9,0,1.7,0,2.1c0,0.3,0.1,0.5,0.4,0.5c0.1,0,0.3,0,0.4,0c0.1,0,0.1,0,0.1,0.1c0,0,0,0.1-0.2,0.1c-0.5,0-1.1,0-1.2,0
			c0,0-0.6,0-0.9,0c-0.1,0-0.2,0-0.2-0.1c0,0,0-0.1,0.1-0.1c0.1,0,0.2,0,0.3,0c0.2,0,0.2-0.2,0.3-0.5c0-0.4,0-1.2,0-2.1V58.6z
			 M304.8,59.5c0,0,0,0.1,0.1,0.1c0.1,0.1,0.6,0.2,1,0.2c0.2,0,0.5,0,0.7-0.2c0.3-0.2,0.6-0.7,0.6-1.5c0-1.2-0.6-1.9-1.7-1.9
			c-0.3,0-0.5,0-0.6,0.1c0,0-0.1,0.1-0.1,0.1V59.5z"/>
		<path class="st0" d="M312,60.3c0,0.9,0,1.7,0,2.1c0,0.3,0.1,0.5,0.4,0.5c0.1,0,0.3,0,0.4,0c0.1,0,0.1,0,0.1,0.1c0,0,0,0.1-0.2,0.1
			c-0.5,0-1.1,0-1.2,0c0,0-0.7,0-0.9,0c-0.1,0-0.2,0-0.2-0.1c0,0,0-0.1,0.1-0.1c0.1,0,0.2,0,0.3,0c0.2,0,0.2-0.2,0.3-0.5
			c0-0.4,0-1.2,0-2.1v-1.7c0-1.5,0-1.8,0-2.1c0-0.3-0.1-0.5-0.3-0.5c-0.1,0-0.2,0-0.3,0c0,0-0.1,0-0.1-0.1c0-0.1,0-0.1,0.2-0.1
			c0.3,0,0.9,0,1,0c0,0,0.7,0,0.9,0c0.1,0,0.2,0,0.2,0.1c0,0,0,0.1-0.1,0.1c-0.1,0-0.1,0-0.2,0c-0.3,0-0.3,0.2-0.4,0.5
			c0,0.3,0,0.6,0,2.1V60.3z"/>
		<path class="st0" d="M315.7,61.8c0,0.8,0.1,1,0.4,1.1c0.2,0,0.4,0.1,0.5,0.1c0,0,0.1,0,0.1,0.1c0,0.1-0.1,0.1-0.2,0.1
			c-0.5,0-0.9,0-1,0s-0.5,0-0.9,0c-0.1,0-0.2,0-0.2-0.1c0,0,0-0.1,0.1-0.1c0.1,0,0.2,0,0.4-0.1c0.2-0.1,0.3-0.3,0.3-1.2l0-5.5
			c0-0.4,0-0.5,0.1-0.5c0.1,0,0.2,0.2,0.3,0.3c0.1,0.2,1.6,1.7,3.1,3.3c1,1,2,2.2,2.3,2.5l-0.1-4.9c0-0.6-0.1-0.8-0.4-0.9
			c-0.2,0-0.4,0-0.5,0c-0.1,0-0.1,0-0.1-0.1c0-0.1,0.1-0.1,0.2-0.1c0.4,0,0.9,0,1,0s0.4,0,0.8,0c0.1,0,0.2,0,0.2,0.1
			c0,0,0,0.1-0.1,0.1c0,0-0.1,0-0.2,0c-0.3,0.1-0.4,0.3-0.4,0.9l0,5.6c0,0.6,0,0.7-0.1,0.7c-0.1,0-0.2-0.1-0.7-0.6
			c-0.1-0.1-1.5-1.5-2.5-2.6c-1.1-1.2-2.2-2.4-2.5-2.8L315.7,61.8z"/>
		<path class="st0" d="M329,60.7c0-0.8,0-0.9-0.4-1c-0.1,0-0.2,0-0.3,0c0,0-0.1,0-0.1-0.1c0-0.1,0-0.1,0.2-0.1c0.4,0,1,0,1.1,0
			c0,0,0.7,0,0.9,0c0.1,0,0.2,0,0.2,0.1c0,0,0,0.1-0.1,0.1c-0.1,0-0.1,0-0.2,0c-0.3,0-0.3,0.2-0.4,0.5c0,0.3,0,0.6,0,1v1.1
			c0,0.4,0,0.5-0.1,0.5c-0.6,0.3-1.5,0.4-2,0.4c-0.7,0-2.1-0.1-3.2-1c-0.6-0.5-1.1-1.5-1.1-2.7c0-1.5,0.8-2.6,1.6-3.2
			c0.9-0.5,1.8-0.6,2.6-0.6c0.6,0,1.3,0.1,1.5,0.2c0.2,0,0.5,0.1,0.8,0.1c0.1,0,0.1,0,0.1,0.1c0,0.1-0.1,0.4-0.1,1.4
			c0,0.2,0,0.2-0.1,0.2c0,0-0.1-0.1-0.1-0.1c0-0.1-0.1-0.4-0.2-0.6c-0.2-0.4-1-0.8-2.3-0.8c-0.6,0-1.3,0.1-2.1,0.6
			c-0.6,0.4-1,1.3-1,2.4c0,1.4,0.7,2.3,1,2.7c0.8,0.7,1.6,1,2.5,1c0.3,0,0.8-0.1,1.1-0.2c0.1-0.1,0.2-0.2,0.2-0.3V60.7z"/>
	</g>
</g>
<g>
	<g>
		<g>
			<path class="st0" d="M51.6,0c0,0-4.9,8.5-5.1,16.5h4.5v3.9h-4.7c0,0-0.4,8,5.2,16.9h-4.6c0,0-11-15.2,0-37.3H51.6z"/>
			<path class="st0" d="M42.7,37.3c0,0-11-15.2,0-37.3H0.3v37.3H42.7z"/>
			<path class="st0" d="M68.7,37.3H73V20.4h4.6v-3.9H73C73.2,8.6,78.1,0,78.1,0h-4.6c-3.5,7-4.8,13.3-4.9,18.7L68.7,37.3z"/>
			<path class="st0" d="M84.3,20.4c0,0-0.4,8,5.2,16.9H85c0,0-5.1-7.1-4.9-18.6V0h4.2L84.3,20.4z"/>
			<path class="st0" d="M94,37.3c-5.6-8.9-5.2-16.9-5.2-16.9l0-20.4h43.1l0,37.3L94,37.3z"/>
			<rect x="54.4" y="0" class="st0" width="4.2" height="37.3"/>
			<path class="st0" d="M64.4,0h-4.5c0,0,7.1,9.3,0,18.7h4.5C64.4,18.7,71,9.9,64.4,0z"/>
			<path class="st0" d="M3.7,42.4c0.1,0.1,0,0.1,0,0.1c0,0-0.1,0-0.3,0c-0.5,0.1-1.2,0.3-1.5,0.4c-0.1,0-0.1,0-0.1,0
				c0,0-0.1,0-0.1-0.1c0,0,0,0,0.1-0.1C2.1,42.6,3.1,42,3.1,42c0.2-0.1,0.2-0.1,0.3-0.1c0,0,0,0,0.1,0.1C3.6,42,3.6,42.2,3.7,42.4z
				 M0.9,46.6c0-1.5,0-1.8,0-2.1c0-0.3-0.1-0.5-0.4-0.6c-0.1,0-0.2,0-0.3,0c0,0-0.1,0-0.1-0.1c0-0.1,0.1-0.1,0.2-0.1
				c0.4,0,1.1,0,1.1,0c0.1,0,2,0,2.3,0c0.2,0,0.3,0,0.4-0.1c0.1,0,0.1,0,0.1,0c0,0,0,0,0,0.1c0,0.1-0.1,0.2-0.1,0.5
				c0,0.1,0,0.5-0.1,0.7C4,44.9,4,45,4,45c-0.1,0-0.1-0.1-0.1-0.1c0-0.1,0-0.2-0.1-0.4c-0.1-0.2-0.2-0.3-0.7-0.3c-0.2,0-1.3,0-1.4,0
				c0,0-0.1,0-0.1,0.1V47c0,0.1,0,0.1,0.1,0.1c0.1,0,1.4,0,1.6,0c0.2,0,0.4,0,0.5-0.1c0.1-0.1,0.1-0.1,0.1-0.1c0,0,0,0,0,0.1
				c0,0.1,0,0.2-0.1,0.6c0,0.2,0,0.6,0,0.6c0,0.1,0,0.2-0.1,0.2c0,0-0.1,0-0.1-0.1c0-0.1,0-0.2,0-0.3c0-0.1-0.1-0.3-0.5-0.3
				c-0.3,0-1.2-0.1-1.4-0.1c-0.1,0-0.1,0-0.1,0.1v0.9c0,0.3,0,1.5,0,1.7c0,0.7,0.2,0.8,1.2,0.8c0.3,0,0.7,0,1-0.1
				c0.3-0.1,0.4-0.3,0.4-0.7c0-0.1,0-0.1,0.1-0.1c0.1,0,0.1,0.1,0.1,0.1c0,0.1-0.1,0.8-0.1,1c-0.1,0.3-0.2,0.3-0.5,0.3
				c-1.5,0-2.2-0.1-2.5-0.1c-0.1,0-0.7,0-1,0c-0.1,0-0.2,0-0.2-0.1c0,0,0-0.1,0.1-0.1c0.1,0,0.2,0,0.3,0c0.2,0,0.2-0.3,0.3-0.5
				c0.1-0.4,0.1-1.2,0.1-2.2V46.6z"/>
			<path class="st0" d="M7,50.3c-1-0.9-1.2-2-1.2-2.9c0-0.7,0.2-1.8,1.1-2.7c0.6-0.6,1.5-1.1,3-1.1c0.4,0,1,0,1.4,0.1
				c0.4,0.1,0.7,0.1,1,0.1c0.1,0,0.1,0.1,0.1,0.1c0,0.1,0,0.2,0,0.6c0,0.3,0,0.9,0,1c0,0.1,0,0.2-0.1,0.2c-0.1,0-0.1-0.1-0.1-0.2
				c0-0.4-0.2-0.8-0.4-1c-0.3-0.3-1.1-0.6-2-0.6c-1.3,0-1.9,0.4-2.3,0.7c-0.7,0.7-0.9,1.6-0.9,2.6c0,1.9,1.5,3.6,3.6,3.6
				c0.7,0,1.3-0.1,1.7-0.5c0.2-0.2,0.3-0.7,0.4-0.8c0-0.1,0-0.2,0.1-0.2c0,0,0.1,0.1,0.1,0.2c0,0.1-0.1,0.9-0.2,1.3
				c-0.1,0.2-0.1,0.2-0.3,0.3c-0.4,0.2-1.2,0.2-1.8,0.2C8.8,51.4,7.8,51,7,50.3z"/>
			<path class="st0" d="M14.7,47.2c0-2.2,1.2-3.3,2.9-3.3c1.6,0,3,1.3,3,3.7c0,2.9-1.8,3.4-2.7,3.4C16.1,51,14.7,49.5,14.7,47.2z
				 M13.8,47.5c0,1.8,1.1,3.9,3.9,3.9c2.4,0,4-1.8,4-4.1c0-2.3-1.7-3.7-3.9-3.7C15,43.6,13.8,45.9,13.8,47.5z"/>
			<path class="st0" d="M24.8,48.4c0,1.5,0,2.1,0.2,2.3c0.2,0.2,0.4,0.2,1.2,0.2c0.5,0,1,0,1.2-0.3c0.1-0.2,0.2-0.4,0.3-0.6
				c0-0.1,0-0.1,0.1-0.1c0.1,0,0.1,0,0.1,0.2c0,0.1-0.1,0.7-0.1,1c-0.1,0.2-0.1,0.3-0.6,0.3c-1.4,0-2.1-0.1-2.7-0.1
				c-0.1,0-0.7,0-1,0c-0.1,0-0.2,0-0.2-0.1c0,0,0-0.1,0.1-0.1c0.1,0,0.2,0,0.3,0c0.2,0,0.2-0.3,0.3-0.5c0-0.4,0-1.2,0-2.2v-1.7
				c0-1.5,0-1.8,0-2.1c0-0.3-0.1-0.5-0.4-0.6c-0.1,0-0.2,0-0.3,0c0,0-0.1,0-0.1-0.1c0-0.1,0.1-0.1,0.2-0.1c0.4,0,1.1,0,1.1,0
				c0.1,0,0.8,0,1.1,0c0.1,0,0.2,0,0.2,0.1c0,0,0,0.1-0.1,0.1c-0.1,0-0.2,0-0.3,0c-0.3,0.1-0.4,0.2-0.4,0.6c0,0.3,0,0.6,0,2.1V48.4z
				"/>
			<path class="st0" d="M29.9,46.6c0-1.5,0-1.8,0-2.1c0-0.3-0.1-0.5-0.4-0.6c-0.1,0-0.2,0-0.3,0c0,0-0.1,0-0.1-0.1
				c0-0.1,0.1-0.1,0.2-0.1c0.4,0,1.1,0,1.1,0c0.1,0,2,0,2.3,0c0.2,0,0.3,0,0.4-0.1c0.1,0,0.1,0,0.1,0c0,0,0,0,0,0.1
				c0,0.1,0,0.2-0.1,0.5c0,0.1,0,0.5,0,0.7c0,0,0,0.1-0.1,0.1c-0.1,0-0.1-0.1-0.1-0.1c0-0.1,0-0.2-0.1-0.4c-0.1-0.2-0.2-0.3-0.7-0.3
				c-0.2,0-1.3,0-1.4,0c0,0-0.1,0-0.1,0.1V47c0,0.1,0,0.1,0.1,0.1c0.1,0,1.4,0,1.6,0c0.2,0,0.4,0,0.5-0.1c0.1-0.1,0.1-0.1,0.1-0.1
				c0,0,0.1,0,0.1,0.1c0,0.1-0.1,0.2-0.1,0.6c0,0.2,0,0.6,0,0.6c0,0.1,0,0.2-0.1,0.2c0,0-0.1,0-0.1-0.1c0-0.1,0-0.2,0-0.3
				c0-0.1-0.1-0.3-0.5-0.3c-0.3,0-1.3-0.1-1.4-0.1c0,0-0.1,0-0.1,0.1v0.9c0,0.3,0,1.5,0,1.7c0,0.7,0.2,0.8,1.2,0.8
				c0.3,0,0.7,0,1-0.1c0.3-0.1,0.4-0.3,0.4-0.7c0-0.1,0-0.1,0.1-0.1c0.1,0,0.1,0.1,0.1,0.1c0,0.1-0.1,0.8-0.1,1
				c-0.1,0.3-0.1,0.3-0.5,0.3c-1.5,0-2.2-0.1-2.5-0.1c0,0-0.7,0-1,0c-0.1,0-0.2,0-0.2-0.1c0,0,0-0.1,0.1-0.1c0.1,0,0.2,0,0.3,0
				c0.2,0,0.2-0.3,0.3-0.5c0-0.4,0-1.2,0-2.2V46.6z"/>
			<path class="st0" d="M39.2,46.6c0-1.5,0-1.8,0-2.1c0-0.3-0.1-0.5-0.4-0.6c-0.1,0-0.2,0-0.3,0c0,0-0.1,0-0.1-0.1
				c0-0.1,0-0.1,0.2-0.1c0.4,0,1,0,1.1,0c0.2,0,0.8,0,1.3,0c1.2,0,1.7,0.4,1.8,0.6c0.2,0.2,0.5,0.7,0.5,1.2c0,1.4-1,2.4-2.4,2.4
				c0,0-0.2,0-0.2,0c0,0-0.1,0-0.1-0.1c0-0.1,0.1-0.1,0.3-0.1c1,0,1.7-0.7,1.7-1.6c0-0.3,0-1-0.6-1.5C41.3,44,40.7,44,40.5,44
				c-0.2,0-0.3,0-0.4,0.1c-0.1,0-0.1,0.1-0.1,0.2v4.1c0,1,0,1.7,0,2.2c0,0.3,0.1,0.5,0.4,0.5c0.1,0,0.4,0,0.4,0c0.1,0,0.1,0,0.1,0.1
				c0,0,0,0.1-0.2,0.1c-0.5,0-1.2,0-1.2,0c0,0-0.7,0-1,0c-0.1,0-0.2,0-0.2-0.1c0,0,0-0.1,0.1-0.1c0.1,0,0.2,0,0.3,0
				c0.2,0,0.2-0.3,0.3-0.5c0-0.4,0-1.2,0-2.2V46.6z"/>
			<path class="st0" d="M45.4,47.2c0-2.2,1.2-3.3,2.9-3.3c1.6,0,3,1.3,3,3.7c0,2.9-1.8,3.4-2.7,3.4C46.7,51,45.4,49.5,45.4,47.2z
				 M44.4,47.5c0,1.8,1.1,3.9,3.9,3.9c2.4,0,4-1.8,4-4.1c0-2.3-1.7-3.7-3.9-3.7C45.6,43.6,44.4,45.9,44.4,47.5z"/>
			<path class="st0" d="M55.3,48.4c0,1.5,0,2.1,0.2,2.3c0.2,0.2,0.4,0.2,1.2,0.2c0.5,0,1,0,1.2-0.3c0.1-0.2,0.2-0.4,0.3-0.6
				c0-0.1,0-0.1,0.1-0.1c0,0,0.1,0,0.1,0.2c0,0.1-0.1,0.7-0.2,1c-0.1,0.2-0.1,0.3-0.6,0.3c-1.4,0-2.1-0.1-2.7-0.1c-0.1,0-0.7,0-1,0
				c-0.1,0-0.2,0-0.2-0.1c0,0,0-0.1,0.1-0.1c0.1,0,0.2,0,0.3,0c0.2,0,0.2-0.3,0.3-0.5c0.1-0.4,0.1-1.2,0.1-2.2v-1.7
				c0-1.5,0-1.8,0-2.1c0-0.3-0.1-0.5-0.4-0.6c-0.1,0-0.2,0-0.3,0c0,0-0.1,0-0.1-0.1c0-0.1,0.1-0.1,0.2-0.1c0.4,0,1.1,0,1.1,0
				s0.8,0,1.1,0c0.1,0,0.2,0,0.2,0.1c0,0,0,0.1-0.1,0.1c-0.1,0-0.2,0-0.3,0c-0.3,0.1-0.4,0.2-0.4,0.6c0,0.3,0,0.6,0,2.1V48.4z"/>
			<path class="st0" d="M61.2,48.7c0-0.5-0.1-0.8-0.2-1c-0.1-0.2-1.4-2.3-1.7-2.9c-0.3-0.4-0.5-0.6-0.7-0.7
				c-0.1-0.1-0.3-0.2-0.4-0.2c0,0-0.1,0-0.1-0.1c0,0,0-0.1,0.1-0.1c0.2,0,0.9,0,1,0c0.1,0,0.4,0,0.8,0c0.1,0,0.1,0,0.1,0.1
				c0,0-0.1,0.1-0.1,0.1c-0.1,0-0.1,0.1-0.1,0.2c0,0.1,0.1,0.2,0.1,0.4c0.2,0.3,1.6,2.8,1.8,3.1c0.2-0.4,1.5-2.6,1.6-2.9
				c0.1-0.2,0.2-0.4,0.2-0.5c0-0.1,0-0.2-0.2-0.3c-0.1,0-0.1-0.1-0.1-0.1c0,0,0.1-0.1,0.2-0.1c0.3,0,0.6,0,0.7,0c0.1,0,0.8,0,1,0
				c0.1,0,0.1,0,0.1,0.1c0,0.1,0,0.1-0.1,0.1c-0.1,0-0.3,0-0.5,0.1c-0.2,0.1-0.3,0.2-0.5,0.5c-0.3,0.4-1.7,2.7-1.9,3.2
				C62,48,62,48.3,62,48.7v0.9c0,0.2,0,0.6,0,1c0,0.3,0.1,0.5,0.4,0.5c0.1,0,0.4,0,0.4,0c0.1,0,0.1,0,0.1,0.1c0,0,0,0.1-0.2,0.1
				c-0.5,0-1.2,0-1.2,0c-0.1,0-0.7,0-1,0c-0.1,0-0.2,0-0.2-0.1c0,0,0-0.1,0.1-0.1c0.1,0,0.2,0,0.3,0c0.2,0,0.3-0.3,0.3-0.5
				c0-0.4,0-0.8,0-1V48.7z"/>
			<path class="st0" d="M68.9,48.4c0,1,0,1.7,0,2.2c0,0.3,0.1,0.5,0.4,0.5c0.1,0,0.4,0,0.4,0c0.1,0,0.1,0,0.1,0.1c0,0,0,0.1-0.2,0.1
				c-0.5,0-1.2,0-1.2,0c-0.1,0-0.7,0-1,0c-0.1,0-0.2,0-0.2-0.1c0,0,0-0.1,0.1-0.1c0.1,0,0.2,0,0.3,0c0.2,0,0.2-0.3,0.3-0.5
				c0.1-0.4,0.1-1.2,0.1-2.2v-4.2l-1.5,0c-0.6,0-0.9,0.1-1,0.3c-0.1,0.2-0.1,0.2-0.2,0.3c0,0.1-0.1,0.1-0.1,0.1c0,0-0.1,0-0.1-0.1
				c0-0.1,0.2-1,0.2-1c0-0.1,0.1-0.2,0.1-0.2c0.1,0,0.2,0.1,0.4,0.1c0.3,0,0.7,0,0.8,0h3.7c0.6,0,0.9-0.1,1-0.1
				c0.1,0,0.1,0.1,0.1,0.1c0,0.3,0,1,0,1.1c0,0.1,0,0.1-0.1,0.1c0,0-0.1,0-0.1-0.2l0-0.1c0-0.3-0.3-0.5-1.2-0.5l-1.3,0V48.4z"/>
			<path class="st0" d="M73.7,46.6c0-1.5,0-1.8,0-2.1c0-0.3-0.1-0.5-0.4-0.6c-0.1,0-0.2,0-0.3,0c0,0-0.1,0-0.1-0.1
				c0-0.1,0-0.1,0.2-0.1c0.4,0,1.1,0,1.1,0c0.1,0,2,0,2.3,0c0.2,0,0.3,0,0.4-0.1c0.1,0,0.1,0,0.1,0c0,0,0,0,0,0.1
				c0,0.1,0,0.2-0.1,0.5c0,0.1,0,0.5,0,0.7c0,0,0,0.1-0.1,0.1c-0.1,0-0.1-0.1-0.1-0.1c0-0.1,0-0.2-0.1-0.4c-0.1-0.2-0.2-0.3-0.7-0.3
				c-0.2,0-1.3,0-1.4,0c0,0-0.1,0-0.1,0.1V47c0,0.1,0,0.1,0.1,0.1c0.1,0,1.4,0,1.6,0c0.2,0,0.4,0,0.5-0.1c0.1-0.1,0.1-0.1,0.2-0.1
				c0,0,0,0,0,0.1c0,0.1,0,0.2-0.1,0.6c0,0.2,0,0.6,0,0.6c0,0.1,0,0.2-0.1,0.2c-0.1,0-0.1,0-0.1-0.1c0-0.1,0-0.2,0-0.3
				c0-0.1-0.1-0.3-0.5-0.3c-0.3,0-1.3-0.1-1.4-0.1c-0.1,0-0.1,0-0.1,0.1v0.9c0,0.3,0,1.5,0,1.7c0,0.7,0.2,0.8,1.2,0.8
				c0.3,0,0.7,0,1-0.1c0.3-0.1,0.4-0.3,0.4-0.7c0-0.1,0-0.1,0.1-0.1c0.1,0,0.1,0.1,0.1,0.1c0,0.1-0.1,0.8-0.1,1
				c-0.1,0.3-0.1,0.3-0.5,0.3c-1.5,0-2.2-0.1-2.5-0.1c-0.1,0-0.7,0-1,0c-0.1,0-0.2,0-0.2-0.1c0,0,0-0.1,0.1-0.1c0.1,0,0.2,0,0.3,0
				c0.2,0,0.2-0.3,0.3-0.5c0-0.4,0-1.2,0-2.2V46.6z"/>
			<path class="st0" d="M79.8,50.3c-1-0.9-1.2-2-1.2-2.9c0-0.7,0.2-1.8,1.1-2.7c0.6-0.6,1.5-1.1,3-1.1c0.4,0,0.9,0,1.4,0.1
				c0.4,0.1,0.7,0.1,1,0.1c0.1,0,0.1,0.1,0.1,0.1c0,0.1,0,0.2,0,0.6c0,0.3,0,0.9,0,1c0,0.1,0,0.2-0.1,0.2c-0.1,0-0.1-0.1-0.1-0.2
				c0-0.4-0.2-0.8-0.4-1c-0.3-0.3-1.1-0.6-2-0.6c-1.3,0-1.9,0.4-2.3,0.7c-0.7,0.7-0.9,1.6-0.9,2.6c0,1.9,1.5,3.6,3.6,3.6
				c0.7,0,1.3-0.1,1.7-0.5c0.2-0.2,0.3-0.7,0.4-0.8c0-0.1,0-0.2,0.1-0.2c0,0,0.1,0.1,0.1,0.2c0,0.1-0.1,0.9-0.2,1.3
				c-0.1,0.2-0.1,0.2-0.3,0.3c-0.4,0.2-1.2,0.2-1.8,0.2C81.6,51.4,80.6,51,79.8,50.3z"/>
			<path class="st0" d="M93.7,48.4c0,1,0,1.7,0,2.2c0,0.3,0.1,0.5,0.4,0.5c0.1,0,0.4,0,0.4,0c0.1,0,0.1,0,0.1,0.1c0,0,0,0.1-0.2,0.1
				c-0.5,0-1.2,0-1.2,0c0,0-0.7,0-1,0c-0.1,0-0.2,0-0.2-0.1c0,0,0-0.1,0.1-0.1c0.1,0,0.2,0,0.3,0c0.2,0,0.2-0.3,0.3-0.5
				c0.1-0.4,0.1-1.2,0.1-2.2v-1c0,0,0-0.1-0.1-0.1h-4.2c0,0-0.1,0-0.1,0.1v1c0,1,0,1.7,0,2.2c0,0.3,0.1,0.5,0.4,0.5
				c0.1,0,0.4,0,0.4,0c0.1,0,0.1,0,0.1,0.1c0,0-0.1,0.1-0.2,0.1c-0.5,0-1.2,0-1.2,0c-0.1,0-0.7,0-1,0c-0.1,0-0.2,0-0.2-0.1
				c0,0,0-0.1,0.1-0.1c0.1,0,0.2,0,0.3,0c0.2,0,0.3-0.3,0.3-0.5c0-0.4,0-1.2,0-2.2v-1.7c0-1.5,0-1.8,0-2.1c0-0.3-0.1-0.5-0.4-0.6
				c-0.1,0-0.2,0-0.3,0c0,0-0.1,0-0.1-0.1c0-0.1,0-0.1,0.2-0.1c0.5,0,1.1,0,1.1,0c0,0,0.7,0,1,0c0.1,0,0.2,0,0.2,0.1
				c0,0,0,0.1-0.1,0.1c-0.1,0-0.1,0-0.3,0c-0.3,0.1-0.3,0.2-0.4,0.6c0,0.3,0,0.6,0,2.1v0.2c0,0,0,0.1,0.1,0.1h4.2c0,0,0.1,0,0.1-0.1
				v-0.2c0-1.5,0-1.8,0-2.1c0-0.3-0.1-0.5-0.4-0.6c-0.1,0-0.3,0-0.3,0c0,0-0.1,0-0.1-0.1c0-0.1,0.1-0.1,0.2-0.1c0.4,0,1.1,0,1.1,0
				c0.1,0,0.7,0,1,0c0.1,0,0.2,0,0.2,0.1c0,0,0,0.1-0.1,0.1c-0.1,0-0.1,0-0.2,0c-0.3,0.1-0.4,0.2-0.4,0.6c0,0.3,0,0.6,0,2.1V48.4z"
				/>
			<path class="st0" d="M97.5,49.9c0,0.8,0.1,1.1,0.4,1.1c0.2,0.1,0.4,0.1,0.5,0.1c0.1,0,0.1,0,0.1,0.1c0,0.1-0.1,0.1-0.2,0.1
				c-0.6,0-1,0-1.1,0s-0.5,0-1,0c-0.1,0-0.2,0-0.2-0.1c0,0,0-0.1,0.1-0.1c0.1,0,0.3,0,0.4-0.1c0.2-0.1,0.3-0.4,0.3-1.3l0-5.7
				c0-0.4,0-0.5,0.1-0.5c0.1,0,0.3,0.2,0.3,0.3c0.1,0.2,1.6,1.8,3.2,3.4c1,1.1,2.1,2.3,2.4,2.6l-0.1-5c0-0.6-0.1-0.9-0.4-0.9
				c-0.2,0-0.4-0.1-0.5-0.1c-0.1,0-0.1,0-0.1-0.1c0-0.1,0.1-0.1,0.2-0.1c0.4,0,0.9,0,1,0c0.1,0,0.4,0,0.8,0c0.1,0,0.2,0,0.2,0.1
				c0,0,0,0.1-0.1,0.1c-0.1,0-0.1,0-0.2,0c-0.3,0.1-0.4,0.3-0.4,0.9l0,5.8c0,0.7,0,0.7-0.1,0.7c-0.1,0-0.2-0.1-0.7-0.6
				c-0.1-0.1-1.5-1.6-2.6-2.7c-1.2-1.2-2.3-2.5-2.6-2.9L97.5,49.9z"/>
			<path class="st0" d="M107.5,48.4c0,1,0,1.7,0.1,2.2c0,0.3,0.1,0.5,0.4,0.5c0.1,0,0.4,0,0.4,0c0.1,0,0.1,0,0.1,0.1
				c0,0-0.1,0.1-0.2,0.1c-0.5,0-1.2,0-1.2,0c0,0-0.7,0-1,0c-0.1,0-0.2,0-0.2-0.1c0,0,0-0.1,0.1-0.1c0.1,0,0.2,0,0.3,0
				c0.2,0,0.2-0.3,0.3-0.5c0-0.4,0-1.2,0-2.2v-1.7c0-1.5,0-1.8,0-2.1c0-0.3-0.1-0.5-0.3-0.6c-0.1,0-0.2,0-0.3,0c0,0-0.1,0-0.1-0.1
				c0-0.1,0-0.1,0.2-0.1c0.3,0,1,0,1,0c0,0,0.7,0,1,0c0.1,0,0.2,0,0.2,0.1c0,0,0,0.1-0.1,0.1c-0.1,0-0.1,0-0.2,0
				c-0.3,0.1-0.4,0.2-0.4,0.6c0,0.3,0,0.6,0,2.1V48.4z"/>
			<path class="st0" d="M110.8,47.2c0-2.2,1.2-3.3,2.9-3.3c1.6,0,3,1.3,3,3.7c0,2.9-1.8,3.4-2.7,3.4C112.2,51,110.8,49.5,110.8,47.2
				z M117,52c1.6,0.9,2.9,1.3,4.1,1.3c1.5,0,2.6-0.4,3.1-0.7c0.1,0,0.1-0.1,0.1-0.1c0,0,0-0.1-0.1-0.1c0,0-0.1,0-0.1,0
				c-0.7,0.3-1.5,0.4-2,0.4c-0.5,0-2-0.1-4.2-1.2l-2-1.1c0.7-0.4,1.8-1.6,1.8-3.3c0-2.3-1.7-3.7-3.9-3.7c-2.7,0-3.9,2.3-3.9,3.9
				c0,1.8,1.1,3.9,3.9,3.9c0.5,0,1.2-0.1,1.6-0.3L117,52z"/>
			<path class="st0" d="M119.6,46.6c0-1.5,0-1.8,0-2.1c0-0.3-0.1-0.5-0.4-0.6c-0.1,0-0.2,0-0.3,0c0,0-0.1,0-0.1-0.1
				c0-0.1,0.1-0.1,0.2-0.1c0.4,0,1.1,0,1.1,0c0.1,0,0.7,0,1,0c0.1,0,0.2,0,0.2,0.1c0,0,0,0.1-0.1,0.1c-0.1,0-0.1,0-0.3,0
				c-0.3,0-0.3,0.2-0.4,0.6c0,0.3,0,0.6,0,2.1V48c0,1.4,0.3,2,0.7,2.5c0.5,0.5,0.9,0.5,1.5,0.5c0.6,0,1.2-0.3,1.6-0.7
				c0.5-0.6,0.6-1.4,0.6-2.4v-1.2c0-1.5,0-1.8,0-2.1c0-0.3-0.1-0.5-0.4-0.6c-0.1,0-0.2,0-0.3,0c0,0-0.1,0-0.1-0.1
				c0-0.1,0-0.1,0.2-0.1c0.4,0,1,0,1.1,0c0.1,0,0.5,0,0.8,0c0.1,0,0.2,0,0.2,0.1c0,0,0,0.1-0.1,0.1c-0.1,0-0.1,0-0.3,0
				c-0.3,0.1-0.3,0.2-0.4,0.6c0,0.3,0,0.6,0,2.1v1.1c0,1.1-0.1,2.3-0.9,3c-0.7,0.6-1.5,0.7-2,0.7c-0.3,0-1.3,0-2-0.7
				c-0.5-0.5-0.9-1.2-0.9-2.6V46.6z"/>
			<path class="st0" d="M128.4,46.6c0-1.5,0-1.8,0-2.1c0-0.3-0.1-0.5-0.4-0.6c-0.1,0-0.2,0-0.3,0c0,0-0.1,0-0.1-0.1
				c0-0.1,0-0.1,0.2-0.1c0.4,0,1.1,0,1.1,0c0.1,0,2,0,2.3,0c0.2,0,0.3,0,0.4-0.1c0,0,0.1,0,0.1,0c0,0,0,0,0,0.1c0,0.1,0,0.2-0.1,0.5
				c0,0.1,0,0.5,0,0.7c0,0,0,0.1-0.1,0.1c-0.1,0-0.1-0.1-0.1-0.1c0-0.1,0-0.2-0.1-0.4c-0.1-0.2-0.2-0.3-0.7-0.3c-0.2,0-1.3,0-1.4,0
				c0,0-0.1,0-0.1,0.1V47c0,0.1,0,0.1,0.1,0.1c0.1,0,1.3,0,1.6,0c0.2,0,0.4,0,0.5-0.1c0.1-0.1,0.1-0.1,0.2-0.1c0,0,0,0,0,0.1
				c0,0.1,0,0.2-0.1,0.6c0,0.2,0,0.6,0,0.6c0,0.1,0,0.2-0.1,0.2c0,0-0.1,0-0.1-0.1c0-0.1,0-0.2,0-0.3c0-0.1-0.1-0.3-0.5-0.3
				c-0.3,0-1.3-0.1-1.4-0.1c-0.1,0-0.1,0-0.1,0.1v0.9c0,0.3,0,1.5,0,1.7c0,0.7,0.2,0.8,1.2,0.8c0.3,0,0.7,0,1-0.1
				c0.3-0.1,0.4-0.3,0.4-0.7c0-0.1,0-0.1,0.1-0.1c0.1,0,0.1,0.1,0.1,0.1c0,0.1-0.1,0.8-0.1,1c-0.1,0.3-0.2,0.3-0.5,0.3
				c-1.5,0-2.2-0.1-2.5-0.1c0,0-0.7,0-1,0c-0.1,0-0.2,0-0.2-0.1c0,0,0-0.1,0.1-0.1c0.1,0,0.2,0,0.3,0c0.2,0,0.3-0.3,0.3-0.5
				c0-0.4,0-1.2,0-2.2V46.6z"/>
			<path class="st0" d="M0.9,58.5c0-1.5,0-1.8,0-2.1c0-0.3-0.1-0.5-0.4-0.6c-0.1,0-0.2,0-0.3,0c0,0-0.1,0-0.1-0.1
				c0-0.1,0-0.1,0.2-0.1c0.4,0,1.1,0,1.1,0c0.2,0,2.2,0,2.4,0c0.2,0,0.3,0,0.4,0c0.1,0,0.1-0.1,0.1-0.1c0,0,0.1,0,0.1,0.1
				c0,0.1,0,0.2-0.1,0.5c0,0.1,0,0.5-0.1,0.7c0,0,0,0.1-0.1,0.1c0,0-0.1-0.1-0.1-0.1c0-0.1,0-0.2-0.1-0.4c-0.1-0.1-0.3-0.3-0.7-0.3
				l-1.5,0c-0.1,0-0.1,0-0.1,0.1v2.7c0,0.1,0,0.1,0.1,0.1l1.3,0c0.2,0,0.3,0,0.4,0c0.2,0,0.4,0,0.5-0.2c0-0.1,0.1-0.1,0.1-0.1
				c0,0,0.1,0,0.1,0.1c0,0.1-0.1,0.2-0.1,0.6c0,0.2,0,0.6,0,0.7c0,0.1,0,0.2-0.1,0.2c0,0-0.1,0-0.1-0.1c0-0.1,0-0.2-0.1-0.4
				c-0.1-0.1-0.2-0.3-0.5-0.4c-0.2,0-1.3,0-1.5,0c-0.1,0-0.1,0-0.1,0.1v0.8c0,1,0,1.7,0.1,2.2c0,0.3,0.1,0.5,0.4,0.5
				c0.1,0,0.4,0,0.4,0c0.1,0,0.1,0,0.1,0.1c0,0.1,0,0.1-0.2,0.1c-0.5,0-1.2,0-1.2,0c0,0-0.7,0-1,0c-0.1,0-0.2,0-0.2-0.1
				c0,0,0-0.1,0.1-0.1c0.1,0,0.2,0,0.3,0c0.2,0,0.2-0.3,0.3-0.5c0-0.4,0-1.2,0-2.2V58.5z"/>
			<path class="st0" d="M9.7,54.3c0,0.1,0,0.1,0,0.1c0,0-0.1,0-0.3,0c-0.5,0-1.2,0.3-1.5,0.4c-0.1,0-0.1,0-0.2,0c0,0,0,0,0-0.1
				c0,0,0,0,0.1-0.1c0.4-0.2,1.3-0.8,1.4-0.8c0.2-0.1,0.2-0.1,0.3-0.1c0,0,0,0,0.1,0.1C9.5,54,9.6,54.1,9.7,54.3z M6.8,58.5
				c0-1.5,0-1.8,0-2.1c0-0.3-0.1-0.5-0.4-0.6c-0.1,0-0.2,0-0.3,0c0,0-0.1,0-0.1-0.1c0-0.1,0.1-0.1,0.2-0.1c0.4,0,1.1,0,1.1,0
				c0.1,0,2,0,2.3,0c0.2,0,0.3,0,0.4-0.1c0,0,0.1,0,0.1,0c0,0,0,0,0,0.1c0,0.1,0,0.2-0.1,0.5c0,0.1,0,0.5-0.1,0.7c0,0,0,0.1-0.1,0.1
				c-0.1,0-0.1-0.1-0.1-0.1c0-0.1,0-0.2-0.1-0.4c-0.1-0.2-0.2-0.3-0.7-0.3c-0.2,0-1.3,0-1.4,0c0,0-0.1,0-0.1,0.1v2.7
				c0,0.1,0,0.1,0.1,0.1c0.1,0,1.4,0,1.6,0c0.2,0,0.4,0,0.5-0.1c0.1-0.1,0.1-0.1,0.1-0.1c0,0,0.1,0,0.1,0.1c0,0.1-0.1,0.2-0.1,0.6
				c0,0.2,0,0.6,0,0.6c0,0.1,0,0.2-0.1,0.2c0,0-0.1,0-0.1-0.1c0-0.1,0-0.2,0-0.3c0-0.1-0.1-0.3-0.5-0.3c-0.3,0-1.3-0.1-1.4-0.1
				c0,0-0.1,0-0.1,0.1v0.9c0,0.3,0,1.5,0,1.7c0,0.7,0.2,0.8,1.2,0.8c0.3,0,0.7,0,1-0.1c0.3-0.1,0.4-0.3,0.4-0.7c0-0.1,0-0.2,0.1-0.2
				c0.1,0,0.1,0.1,0.1,0.2c0,0.1-0.1,0.8-0.1,1c-0.1,0.3-0.1,0.3-0.5,0.3c-1.5,0-2.2-0.1-2.5-0.1c0,0-0.7,0-1,0
				c-0.1,0-0.2,0-0.2-0.1c0,0,0-0.1,0.1-0.1c0.1,0,0.2,0,0.3,0c0.2,0,0.2-0.3,0.3-0.5c0-0.4,0-1.2,0-2.2V58.5z"/>
			<path class="st0" d="M13.7,58.4c0-0.8,0-1.8,0-2.1c0-0.1,0-0.2,0.1-0.2c0.1,0,0.4-0.1,0.6-0.1c1.2,0,2.3,0.1,3.2,1.1
				c0.4,0.4,1,1.2,1,2.5c0,0.9-0.3,1.9-0.8,2.4c-0.6,0.6-1.4,0.9-2.4,0.9c-1.2,0-1.6-0.2-1.7-0.4c-0.1-0.1-0.1-0.5-0.1-0.8
				c0-0.2,0-1.1,0-2.2V58.4z M12.9,60.3c0,1,0,1.7-0.1,2.2c0,0.3-0.1,0.5-0.3,0.5c-0.1,0-0.2,0-0.3,0c-0.1,0-0.1,0-0.1,0.1
				c0,0.1,0.1,0.1,0.2,0.1c0.3,0,0.9,0,1,0c0.1,0,1.4,0.1,2.2,0.1c1.7,0,2.6-0.7,3-1.1c0.6-0.6,1.1-1.6,1.1-2.8c0-1.2-0.5-2-1-2.5
				c-1.2-1.2-3-1.1-4-1.1c-0.6,0-1.2,0-1.3,0c-0.1,0-0.7,0-1.1,0c-0.1,0-0.2,0-0.2,0.1c0,0,0,0.1,0.1,0.1c0.1,0,0.3,0,0.3,0
				c0.3,0.1,0.4,0.2,0.4,0.6c0,0.3,0,0.6,0,2.1V60.3z"/>
			<path class="st0" d="M24.5,54.3c0.1,0.1,0,0.1,0,0.1c0,0-0.1,0-0.3,0c-0.5,0-1.2,0.3-1.5,0.4c-0.1,0-0.1,0-0.1,0
				c0,0-0.1,0-0.1-0.1c0,0,0,0,0.1-0.1c0.4-0.2,1.3-0.8,1.4-0.8c0.2-0.1,0.2-0.1,0.3-0.1c0,0,0,0,0.1,0.1
				C24.3,54,24.4,54.1,24.5,54.3z M21.6,58.5c0-1.5,0-1.8,0-2.1c0-0.3-0.1-0.5-0.4-0.6c-0.1,0-0.2,0-0.3,0c0,0-0.1,0-0.1-0.1
				c0-0.1,0-0.1,0.2-0.1c0.4,0,1.1,0,1.1,0c0.1,0,2,0,2.3,0c0.2,0,0.3,0,0.4-0.1c0,0,0.1,0,0.1,0c0,0,0,0,0,0.1c0,0.1,0,0.2-0.1,0.5
				c0,0.1,0,0.5,0,0.7c0,0,0,0.1-0.1,0.1c-0.1,0-0.1-0.1-0.1-0.1c0-0.1,0-0.2-0.1-0.4c-0.1-0.2-0.2-0.3-0.7-0.3c-0.2,0-1.3,0-1.4,0
				c0,0-0.1,0-0.1,0.1v2.7c0,0.1,0,0.1,0.1,0.1c0.1,0,1.4,0,1.6,0c0.2,0,0.4,0,0.5-0.1c0.1-0.1,0.1-0.1,0.1-0.1c0,0,0,0,0,0.1
				c0,0.1,0,0.2-0.1,0.6c0,0.2,0,0.6,0,0.6c0,0.1,0,0.2-0.1,0.2c0,0-0.1,0-0.1-0.1c0-0.1,0-0.2,0-0.3c0-0.1-0.1-0.3-0.5-0.3
				c-0.3,0-1.3-0.1-1.4-0.1c-0.1,0-0.1,0-0.1,0.1v0.9c0,0.3,0,1.5,0,1.7c0,0.7,0.2,0.8,1.2,0.8c0.3,0,0.7,0,1-0.1
				c0.3-0.1,0.4-0.3,0.4-0.7c0-0.1,0-0.2,0.1-0.2c0.1,0,0.1,0.1,0.1,0.2c0,0.1-0.1,0.8-0.1,1c-0.1,0.3-0.1,0.3-0.5,0.3
				c-1.5,0-2.2-0.1-2.5-0.1c-0.1,0-0.7,0-1,0c-0.1,0-0.2,0-0.2-0.1c0,0,0-0.1,0.1-0.1c0.1,0,0.2,0,0.3,0c0.2,0,0.2-0.3,0.3-0.5
				c0.1-0.4,0.1-1.2,0.1-2.2V58.5z"/>
			<path class="st0" d="M28.4,56.1c0-0.1,0-0.1,0.1-0.1c0.1,0,0.4-0.1,0.7-0.1c1.1,0,1.7,0.7,1.7,2c0,0.8-0.3,1.3-0.6,1.5
				c-0.2,0.2-0.5,0.2-0.7,0.2c-0.4,0-0.9-0.1-1-0.2c0,0-0.1-0.1-0.1-0.1V56.1z M27.6,60.3c0,1,0,1.7,0,2.2c0,0.3-0.1,0.5-0.3,0.5
				c-0.1,0-0.2,0-0.3,0c-0.1,0-0.1,0-0.1,0.1c0,0.1,0.1,0.1,0.2,0.1c0.3,0,0.9,0,0.9,0c0,0,0.7,0,1.2,0c0.1,0,0.2,0,0.2-0.1
				c0,0,0-0.1-0.1-0.1c-0.1,0-0.3,0-0.4,0c-0.3,0-0.4-0.3-0.4-0.5c0-0.4,0-1.2,0-2.2V60c0,0,0-0.1,0.1-0.1l1.2,0
				c0.1,0,0.1,0,0.1,0.1c0.2,0.3,0.7,0.9,1.1,1.5c0.6,0.7,0.9,1.2,1.3,1.5c0.3,0.1,0.5,0.2,1.1,0.2H34c0.2,0,0.2,0,0.2-0.1
				c0,0,0-0.1-0.1-0.1c-0.1,0-0.2,0-0.4,0c-0.2,0-0.7-0.1-1.2-0.7c-0.6-0.6-1.3-1.5-2.1-2.5c0.9-0.8,1.2-1.6,1.2-2.3
				c0-0.7-0.4-1.2-0.7-1.4c-0.5-0.4-1.2-0.4-1.8-0.4c-0.3,0-1.1,0-1.2,0c0,0-0.7,0-1.1,0c-0.1,0-0.2,0-0.2,0.1c0,0,0,0.1,0.1,0.1
				c0.1,0,0.3,0,0.3,0c0.3,0.1,0.4,0.2,0.4,0.6c0,0.3,0,0.6,0,2.1V60.3z"/>
			<path class="st0" d="M35.7,59.9C35.7,59.9,35.6,59.9,35.7,59.9l0.8-2.8c0-0.2,0.1-0.2,0.1,0l0.9,2.7c0,0,0,0.1,0,0.1H35.7z
				 M34.3,62.1c-0.2,0.5-0.4,0.9-0.8,0.9c-0.1,0-0.2,0-0.3,0c0,0-0.1,0-0.1,0.1c0,0.1,0.1,0.1,0.2,0.1c0.5,0,1,0,1.1,0
				c0.1,0,0.5,0,0.8,0c0.1,0,0.1,0,0.1-0.1c0,0,0-0.1-0.1-0.1h-0.1c-0.2,0-0.4-0.1-0.4-0.3c0-0.2,0.1-0.4,0.1-0.7l0.6-1.8
				c0,0,0.1-0.1,0.1-0.1h2.1c0,0,0.1,0,0.1,0.1l0.9,2.4c0.1,0.2,0,0.2-0.1,0.3c0,0-0.1,0-0.1,0.1c0,0.1,0.1,0.1,0.3,0.1
				c0.7,0,1.4,0,1.6,0c0.1,0,0.2,0,0.2-0.1c0,0,0-0.1-0.1-0.1c-0.1,0-0.2,0-0.4-0.1c-0.2-0.1-0.5-0.2-0.9-1.1
				c-0.6-1.5-2.2-5.6-2.3-6c-0.1-0.3-0.2-0.4-0.2-0.4c-0.1,0-0.1,0.1-0.2,0.4L34.3,62.1z"/>
			<path class="st0" d="M42.9,60.3c0,1.5,0,2.1,0.2,2.3c0.2,0.2,0.4,0.2,1.2,0.2c0.5,0,1,0,1.2-0.3c0.1-0.2,0.2-0.4,0.3-0.6
				c0-0.1,0-0.1,0.1-0.1c0,0,0.1,0,0.1,0.2c0,0.1-0.1,0.7-0.2,1c-0.1,0.2-0.1,0.3-0.6,0.3c-1.4,0-2.1-0.1-2.7-0.1c-0.1,0-0.7,0-1,0
				c-0.1,0-0.2,0-0.2-0.1c0,0,0-0.1,0.1-0.1c0.1,0,0.2,0,0.3,0c0.2,0,0.2-0.3,0.3-0.5c0-0.4,0-1.2,0-2.2v-1.8c0-1.5,0-1.8,0-2.1
				c0-0.3-0.1-0.5-0.4-0.6c-0.1,0-0.2,0-0.3,0c0,0-0.1,0-0.1-0.1c0-0.1,0-0.1,0.2-0.1c0.4,0,1.1,0,1.1,0c0,0,0.8,0,1.1,0
				c0.1,0,0.2,0,0.2,0.1c0,0,0,0.1-0.1,0.1c-0.1,0-0.2,0-0.3,0c-0.3,0-0.4,0.2-0.4,0.6c0,0.3,0,0.6,0,2.1V60.3z"/>
			<path class="st0" d="M48,58.5c0-1.5,0-1.8,0-2.1c0-0.3-0.1-0.5-0.4-0.6c-0.1,0-0.2,0-0.3,0c0,0-0.1,0-0.1-0.1
				c0-0.1,0-0.1,0.2-0.1c0.4,0,1.1,0,1.1,0c0.1,0,2,0,2.3,0c0.2,0,0.3,0,0.4-0.1c0.1,0,0.1,0,0.1,0c0,0,0,0,0,0.1
				c0,0.1,0,0.2-0.1,0.5c0,0.1,0,0.5,0,0.7c0,0,0,0.1-0.1,0.1c-0.1,0-0.1-0.1-0.1-0.1c0-0.1,0-0.2-0.1-0.4c-0.1-0.2-0.2-0.3-0.7-0.3
				c-0.2,0-1.3,0-1.4,0c0,0-0.1,0-0.1,0.1v2.7c0,0.1,0,0.1,0.1,0.1c0.1,0,1.4,0,1.6,0c0.2,0,0.4,0,0.5-0.1c0.1-0.1,0.1-0.1,0.2-0.1
				c0,0,0,0,0,0.1c0,0.1,0,0.2-0.1,0.6c0,0.2,0,0.6,0,0.6c0,0.1,0,0.2-0.1,0.2c-0.1,0-0.1,0-0.1-0.1c0-0.1,0-0.2,0-0.3
				c0-0.1-0.1-0.3-0.5-0.3c-0.3,0-1.3-0.1-1.4-0.1c0,0-0.1,0-0.1,0.1v0.9c0,0.3,0,1.5,0,1.7c0,0.7,0.2,0.8,1.2,0.8
				c0.3,0,0.7,0,1-0.1c0.3-0.1,0.4-0.3,0.4-0.7c0-0.1,0-0.2,0.1-0.2c0.1,0,0.1,0.1,0.1,0.2c0,0.1-0.1,0.8-0.1,1
				c-0.1,0.3-0.2,0.3-0.5,0.3c-1.5,0-2.2-0.1-2.5-0.1c0,0-0.7,0-1,0c-0.1,0-0.2,0-0.2-0.1c0,0,0-0.1,0.1-0.1c0.1,0,0.2,0,0.3,0
				c0.2,0,0.2-0.3,0.3-0.5c0-0.4,0-1.2,0-2.2V58.5z"/>
			<path class="st0" d="M58.1,58.4c0-0.8,0-1.8,0-2.1c0-0.1,0-0.2,0.1-0.2c0.1,0,0.4-0.1,0.6-0.1c1.2,0,2.3,0.1,3.2,1.1
				c0.4,0.4,1,1.2,1,2.5c0,0.9-0.3,1.9-0.8,2.4c-0.6,0.6-1.4,0.9-2.4,0.9c-1.2,0-1.6-0.2-1.7-0.4c-0.1-0.1-0.1-0.5-0.1-0.8
				c0-0.2,0-1.1,0-2.2V58.4z M57.2,60.3c0,1,0,1.7,0,2.2c0,0.3-0.1,0.5-0.3,0.5c-0.1,0-0.2,0-0.3,0c-0.1,0-0.1,0-0.1,0.1
				c0,0.1,0,0.1,0.2,0.1c0.3,0,0.9,0,1,0c0.1,0,1.3,0.1,2.2,0.1c1.7,0,2.6-0.7,3-1.1c0.6-0.6,1.1-1.6,1.1-2.8c0-1.2-0.5-2-1-2.5
				c-1.2-1.2-3-1.1-4-1.1c-0.6,0-1.2,0-1.3,0c0,0-0.7,0-1.1,0c-0.1,0-0.2,0-0.2,0.1c0,0,0,0.1,0.1,0.1c0.1,0,0.3,0,0.3,0
				c0.3,0.1,0.4,0.2,0.4,0.6c0,0.3,0,0.6,0,2.1V60.3z"/>
			<path class="st0" d="M66.4,58.5c0-1.5,0-1.8,0-2.1c0-0.3-0.1-0.5-0.4-0.6c-0.1,0-0.2,0-0.3,0c0,0-0.1,0-0.1-0.1
				c0-0.1,0-0.1,0.2-0.1c0.4,0,1.1,0,1.1,0c0.1,0,2,0,2.3,0c0.2,0,0.4,0,0.4-0.1c0,0,0.1,0,0.1,0c0,0,0,0,0,0.1
				c0,0.1-0.1,0.2-0.1,0.5c0,0.1,0,0.5,0,0.7c0,0,0,0.1-0.1,0.1c-0.1,0-0.1-0.1-0.1-0.1c0-0.1,0-0.2-0.1-0.4
				c-0.1-0.2-0.2-0.3-0.7-0.3c-0.2,0-1.3,0-1.4,0c0,0-0.1,0-0.1,0.1v2.7c0,0.1,0,0.1,0.1,0.1c0.1,0,1.4,0,1.6,0c0.2,0,0.4,0,0.5-0.1
				c0.1-0.1,0.1-0.1,0.1-0.1c0,0,0.1,0,0.1,0.1c0,0.1-0.1,0.2-0.1,0.6c0,0.2,0,0.6,0,0.6c0,0.1,0,0.2-0.1,0.2c0,0-0.1,0-0.1-0.1
				c0-0.1,0-0.2,0-0.3c0-0.1-0.1-0.3-0.5-0.3c-0.3,0-1.3-0.1-1.4-0.1c0,0-0.1,0-0.1,0.1v0.9c0,0.3,0,1.5,0,1.7
				c0,0.7,0.2,0.8,1.1,0.8c0.3,0,0.7,0,1-0.1c0.3-0.1,0.4-0.3,0.4-0.7c0-0.1,0-0.2,0.1-0.2c0.1,0,0.1,0.1,0.1,0.2
				c0,0.1-0.1,0.8-0.1,1c-0.1,0.3-0.1,0.3-0.5,0.3c-1.5,0-2.2-0.1-2.5-0.1c-0.1,0-0.7,0-1,0c-0.1,0-0.2,0-0.2-0.1c0,0,0-0.1,0.1-0.1
				c0.1,0,0.2,0,0.3,0c0.2,0,0.2-0.3,0.3-0.5c0.1-0.4,0.1-1.2,0.1-2.2V58.5z"/>
			<path class="st0" d="M76.5,60.3c0,1.5,0,2.1,0.2,2.3c0.2,0.2,0.4,0.2,1.2,0.2c0.5,0,1,0,1.2-0.3c0.1-0.2,0.2-0.4,0.3-0.6
				c0-0.1,0-0.1,0.1-0.1c0,0,0.1,0,0.1,0.2c0,0.1-0.1,0.7-0.1,1c-0.1,0.2-0.1,0.3-0.6,0.3c-1.4,0-2.1-0.1-2.7-0.1c-0.1,0-0.7,0-1,0
				c-0.1,0-0.2,0-0.2-0.1c0,0,0-0.1,0.1-0.1c0.1,0,0.2,0,0.3,0c0.2,0,0.2-0.3,0.3-0.5c0.1-0.4,0.1-1.2,0.1-2.2v-1.8
				c0-1.5,0-1.8,0-2.1c0-0.3-0.1-0.5-0.4-0.6c-0.1,0-0.2,0-0.3,0c0,0-0.1,0-0.1-0.1c0-0.1,0.1-0.1,0.2-0.1c0.4,0,1.1,0,1.1,0
				c0,0,0.8,0,1.1,0c0.1,0,0.2,0,0.2,0.1c0,0,0,0.1-0.1,0.1c-0.1,0-0.2,0-0.3,0c-0.3,0-0.4,0.2-0.4,0.6c0,0.3,0,0.6,0,2.1V60.3z"/>
			<path class="st0" d="M82.3,59.9C82.3,59.9,82.2,59.9,82.3,59.9l0.8-2.8c0.1-0.2,0.1-0.2,0.2,0l0.9,2.7c0,0,0,0.1,0,0.1H82.3z
				 M80.9,62.1c-0.2,0.5-0.4,0.9-0.8,0.9c-0.1,0-0.2,0-0.3,0c0,0-0.1,0-0.1,0.1c0,0.1,0.1,0.1,0.2,0.1c0.5,0,1,0,1.1,0
				c0.1,0,0.5,0,0.8,0c0.1,0,0.1,0,0.1-0.1c0,0,0-0.1-0.1-0.1h-0.1c-0.2,0-0.4-0.1-0.4-0.3c0-0.2,0.1-0.4,0.1-0.7l0.6-1.8
				c0,0,0-0.1,0.1-0.1h2.1c0,0,0.1,0,0.1,0.1l0.9,2.4c0.1,0.2,0,0.2-0.1,0.3c0,0-0.1,0-0.1,0.1c0,0.1,0.1,0.1,0.3,0.1
				c0.7,0,1.4,0,1.6,0c0.1,0,0.2,0,0.2-0.1c0,0,0-0.1-0.1-0.1c-0.1,0-0.2,0-0.4-0.1c-0.2-0.1-0.5-0.2-0.9-1.1
				c-0.6-1.5-2.2-5.6-2.3-6c-0.1-0.3-0.2-0.4-0.2-0.4c-0.1,0-0.1,0.1-0.2,0.4L80.9,62.1z"/>
			<path class="st0" d="M88.1,58.5c0-1.5,0-1.8,0-2.1c0-0.3-0.1-0.5-0.4-0.6c-0.1,0-0.2,0-0.3,0c0,0-0.1,0-0.1-0.1
				c0-0.1,0.1-0.1,0.2-0.1c0.4,0,1.1,0,1.1,0c0.1,0,0.7,0,1,0c0.1,0,0.2,0,0.2,0.1c0,0,0,0.1-0.1,0.1c-0.1,0-0.1,0-0.2,0
				c-0.3,0-0.3,0.2-0.4,0.6c0,0.3,0,0.6,0,2.1v1.4c0,1.4,0.3,2,0.7,2.5c0.5,0.5,0.9,0.5,1.5,0.5c0.6,0,1.2-0.3,1.6-0.7
				c0.5-0.6,0.6-1.4,0.6-2.4v-1.2c0-1.5,0-1.8,0-2.1c0-0.3-0.1-0.5-0.4-0.6c-0.1,0-0.2,0-0.3,0c0,0-0.1,0-0.1-0.1
				c0-0.1,0-0.1,0.2-0.1c0.4,0,1,0,1.1,0c0.1,0,0.5,0,0.8,0c0.1,0,0.2,0,0.2,0.1c0,0,0,0.1-0.1,0.1c-0.1,0-0.1,0-0.2,0
				c-0.3,0-0.3,0.2-0.4,0.6c0,0.3,0,0.6,0,2.1v1.1c0,1.1-0.1,2.3-0.9,3c-0.7,0.6-1.5,0.7-2,0.7c-0.3,0-1.3,0-2-0.7
				c-0.5-0.5-0.9-1.2-0.9-2.6V58.5z"/>
			<path class="st0" d="M96.3,63c-0.1-0.1-0.1-0.1-0.1-0.4c0-0.5,0-0.9,0.1-1.1c0-0.1,0-0.2,0.1-0.2c0.1,0,0.1,0,0.1,0.1
				c0,0.1,0,0.2,0,0.4c0.1,0.7,0.8,1,1.5,1c1,0,1.4-0.7,1.4-1.3c0-0.7-0.3-1.1-1.1-1.8l-0.4-0.4c-1.1-0.9-1.3-1.5-1.3-2.2
				c0-1.1,0.8-1.8,2.1-1.8c0.4,0,0.7,0,0.9,0.1c0.2,0,0.3,0,0.3,0c0.1,0,0.1,0,0.1,0.1c0,0,0,0.4,0,1c0,0.2,0,0.2-0.1,0.2
				c-0.1,0-0.1-0.1-0.1-0.1c0-0.1-0.1-0.4-0.1-0.5c-0.1-0.1-0.3-0.5-1.2-0.5c-0.7,0-1.2,0.4-1.2,1.2c0,0.6,0.3,0.9,1.2,1.7l0.3,0.2
				c1.2,0.9,1.5,1.5,1.5,2.3c0,0.4-0.2,1.2-0.8,1.6c-0.4,0.3-1,0.4-1.5,0.4C97.1,63.3,96.7,63.2,96.3,63z"/>
			<path class="st0" d="M103.1,59.9C103.1,59.9,103.1,59.9,103.1,59.9l0.8-2.8c0-0.2,0.1-0.2,0.1,0l0.9,2.7c0,0,0,0.1,0,0.1H103.1z
				 M101.7,62.1c-0.2,0.5-0.4,0.9-0.8,0.9c-0.1,0-0.2,0-0.3,0c-0.1,0-0.1,0-0.1,0.1c0,0.1,0.1,0.1,0.2,0.1c0.5,0,1,0,1.1,0
				c0.1,0,0.5,0,0.8,0c0.1,0,0.1,0,0.1-0.1c0,0,0-0.1-0.1-0.1h-0.1c-0.2,0-0.4-0.1-0.4-0.3c0-0.2,0.1-0.4,0.1-0.7l0.6-1.8
				c0,0,0.1-0.1,0.1-0.1h2.1c0,0,0.1,0,0.1,0.1l0.9,2.4c0.1,0.2,0,0.2-0.1,0.3c0,0-0.1,0-0.1,0.1c0,0.1,0.1,0.1,0.3,0.1
				c0.7,0,1.4,0,1.6,0c0.1,0,0.2,0,0.2-0.1c0,0,0-0.1-0.1-0.1c-0.1,0-0.2,0-0.4-0.1c-0.2-0.1-0.5-0.2-0.9-1.1
				c-0.6-1.5-2.2-5.6-2.3-6c-0.1-0.3-0.2-0.4-0.2-0.4c-0.1,0-0.1,0.1-0.2,0.4L101.7,62.1z"/>
			<path class="st0" d="M109.8,61.8c0,0.8,0.1,1.1,0.4,1.2c0.2,0,0.4,0.1,0.5,0.1c0.1,0,0.1,0,0.1,0.1c0,0.1-0.1,0.1-0.2,0.1
				c-0.6,0-1,0-1.1,0c-0.1,0-0.5,0-1,0c-0.1,0-0.2,0-0.2-0.1c0,0,0-0.1,0.1-0.1c0.1,0,0.3,0,0.4-0.1c0.2-0.1,0.3-0.4,0.3-1.3l0-5.7
				c0-0.4,0-0.5,0.1-0.5s0.2,0.2,0.4,0.3c0.1,0.2,1.6,1.8,3.2,3.4c1,1.1,2.1,2.3,2.4,2.6l-0.1-5c0-0.6-0.1-0.9-0.4-0.9
				c-0.2,0-0.4,0-0.5,0c-0.1,0-0.1,0-0.1-0.1c0-0.1,0.1-0.1,0.2-0.1c0.4,0,0.9,0,1,0c0.1,0,0.4,0,0.8,0c0.1,0,0.2,0,0.2,0.1
				c0,0,0,0.1-0.1,0.1c0,0-0.1,0-0.2,0c-0.3,0.1-0.4,0.3-0.4,0.9l0,5.8c0,0.7,0,0.7-0.1,0.7c-0.1,0-0.2-0.1-0.7-0.6
				c-0.1-0.1-1.5-1.6-2.6-2.7c-1.2-1.2-2.3-2.5-2.6-2.9L109.8,61.8z"/>
			<path class="st0" d="M119.2,61.8c0,0.8,0.1,1.1,0.4,1.2c0.2,0,0.4,0.1,0.5,0.1c0,0,0.1,0,0.1,0.1c0,0.1-0.1,0.1-0.2,0.1
				c-0.6,0-1,0-1.1,0c-0.1,0-0.5,0-1,0c-0.1,0-0.2,0-0.2-0.1c0,0,0-0.1,0.1-0.1c0.1,0,0.3,0,0.4-0.1c0.2-0.1,0.3-0.4,0.3-1.3l0-5.7
				c0-0.4,0-0.5,0.1-0.5c0.1,0,0.2,0.2,0.3,0.3c0.1,0.2,1.6,1.8,3.2,3.4c1,1.1,2.1,2.3,2.4,2.6l-0.1-5c0-0.6-0.1-0.9-0.4-0.9
				c-0.2,0-0.4,0-0.5,0c-0.1,0-0.1,0-0.1-0.1c0-0.1,0.1-0.1,0.2-0.1c0.4,0,0.9,0,1,0c0.1,0,0.4,0,0.8,0c0.1,0,0.2,0,0.2,0.1
				c0,0,0,0.1-0.1,0.1c-0.1,0-0.1,0-0.2,0c-0.3,0.1-0.4,0.3-0.4,0.9l0,5.8c0,0.7,0,0.7-0.1,0.7c-0.1,0-0.2-0.1-0.7-0.6
				c-0.1-0.1-1.5-1.6-2.6-2.7c-1.2-1.2-2.3-2.5-2.6-2.9L119.2,61.8z"/>
			<path class="st0" d="M128.3,58.5c0-1.5,0-1.8,0-2.1c0-0.3-0.1-0.5-0.4-0.6c-0.1,0-0.2,0-0.3,0c0,0-0.1,0-0.1-0.1
				c0-0.1,0-0.1,0.2-0.1c0.4,0,1.1,0,1.1,0c0.1,0,2,0,2.3,0c0.2,0,0.3,0,0.4-0.1c0,0,0.1,0,0.1,0c0,0,0,0,0,0.1
				c0,0.1-0.1,0.2-0.1,0.5c0,0.1,0,0.5,0,0.7c0,0,0,0.1-0.1,0.1c-0.1,0-0.1-0.1-0.1-0.1c0-0.1,0-0.2-0.1-0.4
				c-0.1-0.2-0.2-0.3-0.7-0.3c-0.2,0-1.2,0-1.4,0c0,0-0.1,0-0.1,0.1v2.7c0,0.1,0,0.1,0.1,0.1c0.1,0,1.3,0,1.6,0c0.2,0,0.4,0,0.5-0.1
				c0.1-0.1,0.1-0.1,0.1-0.1c0,0,0,0,0,0.1c0,0.1,0,0.2-0.1,0.6c0,0.2,0,0.6,0,0.6c0,0.1,0,0.2-0.1,0.2c-0.1,0-0.1,0-0.1-0.1
				c0-0.1,0-0.2,0-0.3c0-0.1-0.1-0.3-0.5-0.3c-0.3,0-1.3-0.1-1.4-0.1c-0.1,0-0.1,0-0.1,0.1v0.9c0,0.3,0,1.5,0,1.7
				c0,0.7,0.2,0.8,1.2,0.8c0.3,0,0.7,0,1-0.1c0.3-0.1,0.4-0.3,0.4-0.7c0-0.1,0-0.2,0.1-0.2c0.1,0,0.1,0.1,0.1,0.2
				c0,0.1-0.1,0.8-0.1,1c-0.1,0.3-0.1,0.3-0.5,0.3c-1.5,0-2.2-0.1-2.5-0.1c0,0-0.7,0-1,0c-0.1,0-0.2,0-0.2-0.1c0,0,0-0.1,0.1-0.1
				c0.1,0,0.2,0,0.3,0c0.2,0,0.2-0.3,0.3-0.5c0.1-0.4,0.1-1.2,0.1-2.2V58.5z"/>
		</g>
	</g>
	<g>
		<path class="st0" d="M157.1,0h26.7v6.7h-19.9v8h15.2v6.8h-15.2v8.9h19.9v6.7h-26.7V0z"/>
		<path class="st0" d="M192.2,0h6.6l13.3,23.3V0h6.8v37.2h-6.4L199,13.3v23.9h-6.8V0z"/>
		<path class="st0" d="M226.2,34.6c0-1.8,0.1-2.5,0.6-4.1L236.3,0h6.5l9.5,30.4c0.5,1.7,0.6,2.4,0.6,4.1v2.7h-6.5v-2.7
			c0-0.5,0-0.9-0.1-1.3l-0.8-2.9h-11.8l-0.8,2.9c-0.1,0.3-0.1,0.7-0.1,1.3v2.7h-6.5V34.6z M243.4,23.7l-3.9-12.4l-3.9,12.4H243.4z"
			/>
		<path class="st0" d="M258.2,27.3V9.9c0-5.5,4.4-9.9,9.9-9.9h6.9c5.1,0,9.2,3.8,9.9,8.7l-6.4,1.7l-0.4-1c-0.6-1.7-1.3-2.7-2.8-2.7
			h-7.6c-1.6,0-2.8,1.3-2.8,2.9v18c0,1.6,1.3,2.9,2.8,2.9h7.5c1.6,0,2.5-0.9,2.9-2.7l0.3-1l6.4,1.7c-0.6,5-4.8,8.7-9.8,8.7h-6.8
			C262.7,37.2,258.2,32.8,258.2,27.3z"/>
	</g>
	<rect x="144.5" y="0" class="st0" width="1.6" height="63.1"/>
</g>
</svg>
